<svg width="1440" height="909" viewBox="0 0 1440 909" fill="none" xmlns="http://www.w3.org/2000/svg">
<path d="M314.274 688.246C318.157 693.164 317.318 700.299 312.4 704.183C307.482 708.066 300.347 707.227 296.464 702.309C292.58 697.391 293.419 690.256 298.337 686.373C303.255 682.489 310.39 683.328 314.274 688.246Z" fill="#F2591D"/>
<path d="M115 679.6C115 679.6 174.829 685.518 215.959 661.74C250.554 641.745 255.12 618.357 243.672 610.162C230.519 600.744 196.12 621.51 196.998 663.407C197.88 705.465 250.776 738.39 293.452 704.692" stroke="url(#paint0_linear_2377_17407)" stroke-width="17.5926" stroke-miterlimit="10"/>
<path d="M1135.39 759.326C1130.2 760.737 1127.14 766.085 1128.55 771.273C1129.96 776.46 1135.31 779.522 1140.5 778.111C1145.69 776.701 1148.75 771.352 1147.34 766.165C1145.93 760.977 1140.58 757.915 1135.39 759.326Z" fill="#F2591D"/>
<path d="M1277.24 855.029C1277.24 855.029 1232.95 828.587 1216.72 791.204C1203.06 759.764 1211.85 741.305 1223.92 741.494C1237.8 741.709 1250.93 773.58 1228.95 802.028C1206.88 830.584 1153.6 826.304 1141.36 781.291" stroke="url(#paint1_linear_2377_17407)" stroke-width="15.092" stroke-miterlimit="10"/>
<g clip-path="url(#clip0_2377_17407)">
<mask id="path-5-outside-1_2377_17407" maskUnits="userSpaceOnUse" x="264" y="414" width="911" height="495" fill="black">
<rect fill="white" x="264" y="414" width="911" height="495"/>
<path d="M276 440C276 432.268 282.268 426 290 426H1149C1156.73 426 1163 432.268 1163 440V909H276V440Z"/>
</mask>
<path d="M276 440C276 432.268 282.268 426 290 426H1149C1156.73 426 1163 432.268 1163 440V909H276V440Z" fill="#F5F5F5"/>
<rect x="276" y="477.125" width="887" height="141.674" fill="#E2EDFE"/>
<path d="M304.613 477.125V618.799" stroke="#C3DCFF" stroke-width="0.615972"/>
<path d="M333.225 477.125V618.799" stroke="#C3DCFF" stroke-width="0.615972"/>
<path d="M361.839 477.125V618.799" stroke="#C3DCFF" stroke-width="0.615972"/>
<path d="M390.452 477.125V618.799" stroke="#C3DCFF" stroke-width="0.615972"/>
<path d="M419.064 477.125V618.799" stroke="#C3DCFF" stroke-width="0.615972"/>
<path d="M447.677 477.125V618.799" stroke="#C3DCFF" stroke-width="0.615972"/>
<path d="M476.291 477.125V618.799" stroke="#C3DCFF" stroke-width="0.615972"/>
<path d="M504.903 477.125V618.799" stroke="#C3DCFF" stroke-width="0.615972"/>
<path d="M533.516 477.125V618.799" stroke="#C3DCFF" stroke-width="0.615972"/>
<path d="M562.129 477.125V618.799" stroke="#C3DCFF" stroke-width="0.615972"/>
<path d="M590.741 477.125V618.799" stroke="#C3DCFF" stroke-width="0.615972"/>
<path d="M619.355 477.125V618.799" stroke="#C3DCFF" stroke-width="0.615972"/>
<path d="M647.968 477.125V618.799" stroke="#C3DCFF" stroke-width="0.615972"/>
<path d="M676.581 477.125V618.799" stroke="#C3DCFF" stroke-width="0.615972"/>
<path d="M705.193 477.125V618.799" stroke="#C3DCFF" stroke-width="0.615972"/>
<path d="M733.807 477.125V618.799" stroke="#C3DCFF" stroke-width="0.615972"/>
<path d="M762.419 477.125V618.799" stroke="#C3DCFF" stroke-width="0.615972"/>
<path d="M791.032 477.125V618.799" stroke="#C3DCFF" stroke-width="0.615972"/>
<path d="M819.645 477.125V618.799" stroke="#C3DCFF" stroke-width="0.615972"/>
<path d="M848.257 477.125V618.799" stroke="#C3DCFF" stroke-width="0.615972"/>
<path d="M876.871 477.125V618.799" stroke="#C3DCFF" stroke-width="0.615972"/>
<path d="M905.484 477.125V618.799" stroke="#C3DCFF" stroke-width="0.615972"/>
<path d="M934.097 477.125V618.799" stroke="#C3DCFF" stroke-width="0.615972"/>
<path d="M962.709 477.125V618.799" stroke="#C3DCFF" stroke-width="0.615972"/>
<path d="M991.323 477.125V618.799" stroke="#C3DCFF" stroke-width="0.615972"/>
<path d="M1019.94 477.125V618.799" stroke="#C3DCFF" stroke-width="0.615972"/>
<path d="M1048.55 477.125V618.799" stroke="#C3DCFF" stroke-width="0.615972"/>
<path d="M1077.16 477.125V618.799" stroke="#C3DCFF" stroke-width="0.615972"/>
<path d="M1105.77 477.125V618.799" stroke="#C3DCFF" stroke-width="0.615972"/>
<path d="M1134.39 477.125V618.799" stroke="#C3DCFF" stroke-width="0.615972"/>
<rect width="887" height="51.7417" transform="translate(276 426)" fill="#FAFAFA"/>
<path d="M926.284 450.311C926.284 451.648 926.91 453.044 928.113 453.67L927.593 454.353C926.761 453.91 926.178 453.087 925.87 452.11C925.558 453.15 924.98 454.05 924.148 454.536L923.609 453.862C924.792 453.169 925.418 451.697 925.428 450.311V449.993H923.83V449.233H925.428V447.981H926.284V449.233H927.853V449.993H926.284V450.311ZM931.154 447.673V456.297H930.278V451.87H929.249V455.874H928.382V447.837H929.249V451.1H930.278V447.673H931.154ZM936.862 448.299V449.031H933.637V449.983H936.621V450.705H933.637V451.687C935.365 451.697 936.371 451.668 937.535 451.466L937.632 452.207C936.38 452.409 935.312 452.438 933.426 452.438H932.713V448.299H936.862ZM939.374 447.683V452.986H938.459V447.683H939.374ZM936.486 453.102C938.296 453.102 939.422 453.689 939.422 454.69C939.422 455.7 938.296 456.287 936.486 456.278C934.658 456.287 933.551 455.7 933.551 454.69C933.551 453.689 934.658 453.102 936.486 453.102ZM936.486 453.824C935.197 453.824 934.465 454.141 934.465 454.69C934.465 455.258 935.197 455.575 936.486 455.575C937.747 455.575 938.507 455.258 938.507 454.69C938.507 454.141 937.747 453.824 936.486 453.824Z" fill="#6F7176"/>
<path d="M976.864 448.53V454.132H972.831V448.53H976.864ZM973.726 449.252V453.39H975.959V449.252H973.726ZM979.222 447.673V451.052H980.608V451.822H979.222V456.297H978.307V447.673H979.222ZM988.163 447.673V456.316H987.248V447.673H988.163ZM983.553 448.318C984.833 448.318 985.776 449.493 985.776 451.34C985.776 453.198 984.833 454.372 983.553 454.372C982.253 454.372 981.32 453.198 981.32 451.34C981.32 449.493 982.253 448.318 983.553 448.318ZM983.553 449.136C982.754 449.136 982.205 449.983 982.205 451.34C982.205 452.707 982.754 453.554 983.553 453.554C984.342 453.554 984.89 452.707 984.89 451.34C984.89 449.983 984.342 449.136 983.553 449.136ZM996.998 447.673V456.297H996.122V447.673H996.998ZM995.295 447.866V455.854H994.428V451.725H993.35V450.907H994.428V447.866H995.295ZM993.581 448.732V449.483H992.917V453.333C993.211 453.313 993.495 453.28 993.755 453.246L993.822 453.91C992.455 454.18 990.665 454.218 989.549 454.218L989.443 453.448C989.693 453.448 989.982 453.448 990.29 453.439V449.483H989.626V448.732H993.581ZM991.118 453.429C991.43 453.419 991.753 453.41 992.07 453.39V449.483H991.118V453.429ZM1005.2 447.673V456.316H1004.28V447.673H1005.2ZM1000.59 448.318C1001.87 448.318 1002.81 449.493 1002.81 451.34C1002.81 453.198 1001.87 454.372 1000.59 454.372C999.289 454.372 998.355 453.198 998.355 451.34C998.355 449.493 999.289 448.318 1000.59 448.318ZM1000.59 449.136C999.789 449.136 999.241 449.983 999.241 451.34C999.241 452.707 999.789 453.554 1000.59 453.554C1001.38 453.554 1001.93 452.707 1001.93 451.34C1001.93 449.983 1001.38 449.136 1000.59 449.136ZM1009.75 450.214C1009.75 451.658 1010.69 453.15 1012.02 453.718L1011.52 454.43C1010.51 453.982 1009.7 453.034 1009.3 451.879C1008.9 453.111 1008.09 454.16 1007.08 454.651L1006.56 453.929C1007.85 453.323 1008.82 451.697 1008.83 450.214V449.3H1006.85V448.54H1011.71V449.3H1009.75V450.214ZM1013.72 447.673V456.297H1012.8V447.673H1013.72Z" fill="#6F7176"/>
<path d="M1054.19 454.497V455.267H1046.3V454.497H1049.78V452.986H1047.26V450.243H1052.33V449.031H1047.25V448.28H1053.23V450.975H1048.17V452.236H1053.43V452.986H1050.68V454.497H1054.19ZM1061.65 448.549V449.473C1061.65 450.59 1061.65 451.802 1061.34 453.641L1060.4 453.554C1060.75 451.831 1060.75 450.561 1060.75 449.473V449.3H1055.67V448.549H1061.65ZM1062.68 454.314V455.075H1054.82V454.314H1062.68ZM1065.65 448.318C1066.94 448.318 1067.85 449.493 1067.86 451.34C1067.85 453.198 1066.94 454.372 1065.65 454.372C1064.36 454.372 1063.43 453.198 1063.44 451.34C1063.43 449.493 1064.36 448.318 1065.65 448.318ZM1065.65 449.136C1064.86 449.136 1064.32 449.983 1064.32 451.34C1064.32 452.707 1064.86 453.554 1065.65 453.554C1066.45 453.554 1066.99 452.707 1066.99 451.34C1066.99 449.983 1066.45 449.136 1065.65 449.136ZM1070.06 447.673V451.052H1071.44V451.822H1070.06V456.297H1069.14V447.673H1070.06ZM1079.74 451.562V452.322H1076.22V453.227H1075.32V452.322H1071.86V451.562H1079.74ZM1076.23 453.843C1076.23 454.709 1077.45 455.402 1079.12 455.566L1078.84 456.259C1077.43 456.109 1076.28 455.599 1075.76 454.815C1075.24 455.59 1074.1 456.114 1072.7 456.259L1072.4 455.566C1074.06 455.402 1075.29 454.69 1075.29 453.843V453.602H1076.23V453.843ZM1075.78 447.799C1077.69 447.799 1078.86 448.366 1078.86 449.396C1078.86 450.407 1077.69 450.984 1075.78 450.984C1073.89 450.984 1072.7 450.407 1072.7 449.396C1072.7 448.366 1073.89 447.799 1075.78 447.799ZM1075.78 448.492C1074.44 448.482 1073.64 448.819 1073.65 449.396C1073.64 449.955 1074.44 450.282 1075.78 450.282C1077.12 450.282 1077.92 449.955 1077.92 449.396C1077.92 448.819 1077.12 448.482 1075.78 448.492Z" fill="#95969B"/>
<path d="M361.604 457.413C362.166 457.413 362.622 456.958 362.622 456.395C362.622 455.833 362.166 455.377 361.604 455.377C361.042 455.377 360.586 455.833 360.586 456.395C360.586 456.958 361.042 457.413 361.604 457.413Z" fill="#F2591D"/>
<path d="M349.917 443.863C349.917 443.863 353.659 447.747 354.272 451.965C354.787 455.512 353.394 457.134 352.181 456.783C350.787 456.381 350.336 452.804 353.335 450.537C356.345 448.261 361.604 450.155 361.604 455.033" stroke="url(#paint2_linear_2377_17407)" stroke-width="1.57827" stroke-miterlimit="10"/>
<path d="M363.666 454.077C363.666 453.563 363.76 453.097 363.947 452.68C364.135 452.263 364.39 451.908 364.713 451.617C365.036 451.325 365.412 451.102 365.844 450.946C366.275 450.789 366.733 450.711 367.219 450.711C367.706 450.711 368.155 450.789 368.585 450.946C369.016 451.102 369.393 451.326 369.716 451.617C370.038 451.91 370.296 452.263 370.487 452.68C370.678 453.097 370.774 453.563 370.774 454.077C370.774 454.591 370.678 455.053 370.487 455.465C370.296 455.874 370.038 456.223 369.716 456.513C369.393 456.801 369.015 457.024 368.585 457.18C368.153 457.337 367.699 457.415 367.219 457.415C366.74 457.415 366.274 457.337 365.844 457.18C365.412 457.024 365.036 456.801 364.713 456.513C364.39 456.225 364.134 455.876 363.947 455.465C363.759 455.055 363.666 454.593 363.666 454.077ZM367.221 456.152C367.492 456.152 367.745 456.102 367.982 456.002C368.22 455.902 368.423 455.759 368.592 455.575C368.761 455.391 368.896 455.172 368.993 454.917C369.09 454.664 369.139 454.384 369.139 454.077C369.139 453.77 369.09 453.478 368.993 453.217C368.896 452.957 368.761 452.737 368.592 452.556C368.421 452.375 368.218 452.234 367.982 452.133C367.746 452.031 367.493 451.982 367.221 451.982C366.949 451.982 366.688 452.034 366.455 452.139C366.222 452.243 366.02 452.388 365.85 452.572C365.679 452.755 365.545 452.977 365.448 453.233C365.351 453.491 365.302 453.772 365.302 454.077C365.302 454.383 365.351 454.662 365.448 454.917C365.545 455.171 365.679 455.389 365.85 455.575C366.02 455.759 366.222 455.902 366.455 456.002C366.688 456.103 366.943 456.152 367.221 456.152Z" fill="#1B1B1B"/>
<path d="M377.219 457.1H375.571V453.41C375.571 453.263 375.552 453.113 375.513 452.956C375.476 452.8 375.415 452.658 375.331 452.529C375.247 452.4 375.142 452.296 375.018 452.217C374.893 452.137 374.747 452.096 374.581 452.096C374.442 452.096 374.313 452.134 374.196 452.211C374.077 452.287 373.971 452.386 373.877 452.508C373.783 452.629 373.705 452.767 373.642 452.919C373.58 453.072 373.538 453.221 373.518 453.368V457.1H371.87V451.022H373.309L373.445 451.491C373.674 451.235 373.946 451.058 374.259 450.964C374.572 450.87 374.878 450.819 375.177 450.813C375.476 450.813 375.762 450.889 376.037 451.038C376.312 451.187 376.55 451.401 376.751 451.679C376.883 451.498 377.029 451.351 377.188 451.236C377.348 451.122 377.516 451.034 377.689 450.97C377.863 450.908 378.047 450.866 378.243 450.845C378.437 450.825 378.639 450.813 378.848 450.813C379.126 450.813 379.389 450.874 379.64 450.996C379.89 451.118 380.11 451.29 380.302 451.511C380.493 451.734 380.643 452.004 380.755 452.319C380.866 452.635 380.921 452.985 380.921 453.368V457.1H379.274V453.41C379.274 453.263 379.255 453.113 379.216 452.956C379.178 452.8 379.119 452.658 379.039 452.529C378.959 452.4 378.855 452.296 378.726 452.217C378.597 452.137 378.442 452.096 378.263 452.096C377.998 452.096 377.768 452.201 377.569 452.409C377.371 452.618 377.255 452.906 377.22 453.275V457.1H377.219Z" fill="#1B1B1B"/>
<path d="M383.735 455.1C383.881 455.433 384.103 455.69 384.402 455.871C384.701 456.052 385.073 456.142 385.517 456.142C385.934 456.142 386.315 456.073 386.658 455.934C387.003 455.795 387.313 455.559 387.591 455.224L388.643 456.026C388.281 456.464 387.847 456.805 387.34 457.049C386.833 457.292 386.28 457.413 385.682 457.413C385.168 457.413 384.689 457.335 384.243 457.179C383.798 457.022 383.41 456.799 383.08 456.511C382.75 456.223 382.49 455.871 382.298 455.459C382.107 455.045 382.012 454.581 382.012 454.067C382.012 453.553 382.101 453.11 382.282 452.696C382.463 452.282 382.71 451.929 383.022 451.633C383.335 451.338 383.706 451.109 384.133 450.945C384.56 450.782 385.025 450.701 385.524 450.701C386.024 450.701 386.457 450.78 386.864 450.941C387.271 451.1 387.623 451.322 387.922 451.603C388.221 451.884 388.459 452.221 388.636 452.613C388.813 453.006 388.913 453.436 388.933 453.901L383.73 455.1H383.735ZM385.6 451.972C384.981 451.972 384.494 452.144 384.134 452.487C383.777 452.832 383.58 453.3 383.545 453.889L387.298 452.993C387.117 452.631 386.881 452.372 386.589 452.211C386.296 452.052 385.966 451.971 385.598 451.971L385.6 451.972Z" fill="#1B1B1B"/>
<path d="M391.626 451.7C391.772 451.484 391.974 451.317 392.231 451.199C392.489 451.08 392.79 451.022 393.138 451.022H394.431L394.17 452.293H392.867C392.708 452.293 392.556 452.334 392.414 452.413C392.272 452.493 392.146 452.602 392.039 452.736C391.93 452.872 391.846 453.026 391.784 453.2C391.722 453.373 391.69 453.554 391.69 453.741V457.098H390.042V451.019H391.481L391.628 451.697L391.626 451.7Z" fill="#1B1B1B"/>
<path d="M400.311 456.465C400.2 456.597 400.062 456.715 399.9 456.82C399.736 456.924 399.561 457.012 399.373 457.086C399.185 457.158 398.992 457.215 398.794 457.253C398.595 457.29 398.403 457.31 398.214 457.31C397.832 457.31 397.475 457.251 397.14 457.134C396.807 457.015 396.515 456.85 396.264 456.639C396.014 456.427 395.818 456.169 395.675 455.867C395.533 455.564 395.46 455.23 395.46 454.861V451.023H397.108V454.297C397.108 454.908 397.24 455.351 397.505 455.626C397.77 455.902 398.13 456.038 398.589 456.038C398.986 456.038 399.331 455.904 399.626 455.637C399.922 455.369 400.114 455 400.205 454.526V451.023H401.853V457.102H400.456L400.31 456.466L400.311 456.465Z" fill="#1B1B1B"/>
<path d="M404.898 451.659C405.01 451.527 405.146 451.409 405.309 451.304C405.473 451.2 405.648 451.112 405.836 451.038C406.025 450.964 406.219 450.909 406.42 450.871C406.621 450.834 406.817 450.813 407.003 450.813C407.386 450.813 407.743 450.873 408.078 450.99C408.411 451.109 408.703 451.274 408.954 451.485C409.204 451.697 409.4 451.954 409.543 452.257C409.685 452.56 409.757 452.896 409.757 453.263V457.1H408.11V453.827C408.11 453.216 407.978 452.773 407.713 452.497C407.449 452.222 407.087 452.086 406.628 452.086C406.232 452.086 405.887 452.219 405.592 452.487C405.296 452.755 405.104 453.126 405.013 453.598V457.1H403.365V451.022H404.762L404.898 451.658V451.659Z" fill="#1B1B1B"/>
<path d="M412.8 451.659C412.911 451.527 413.048 451.409 413.211 451.304C413.375 451.2 413.55 451.112 413.738 451.038C413.926 450.964 414.121 450.909 414.322 450.871C414.523 450.834 414.719 450.813 414.905 450.813C415.288 450.813 415.645 450.873 415.98 450.99C416.313 451.109 416.605 451.274 416.856 451.485C417.106 451.697 417.302 451.954 417.445 452.257C417.587 452.56 417.659 452.896 417.659 453.263V457.1H416.012V453.827C416.012 453.216 415.88 452.773 415.615 452.497C415.351 452.222 414.989 452.086 414.53 452.086C414.134 452.086 413.789 452.219 413.494 452.487C413.198 452.755 413.006 453.126 412.914 453.598V457.1H411.267V451.022H412.664L412.8 451.658V451.659Z" fill="#1B1B1B"/>
<path d="M421.026 448.604V450.188H419.378V448.604H421.026ZM421.026 451.022V457.101H419.378V451.022H421.026Z" fill="#1B1B1B"/>
<path d="M424.101 455.1C424.247 455.433 424.469 455.69 424.769 455.871C425.067 456.052 425.439 456.142 425.883 456.142C426.3 456.142 426.681 456.073 427.024 455.934C427.369 455.795 427.679 455.559 427.957 455.224L429.01 456.026C428.648 456.464 428.213 456.805 427.706 457.049C427.2 457.292 426.647 457.413 426.049 457.413C425.534 457.413 425.055 457.335 424.609 457.179C424.165 457.022 423.777 456.799 423.447 456.511C423.116 456.223 422.856 455.871 422.665 455.459C422.473 455.045 422.378 454.581 422.378 454.067C422.378 453.553 422.468 453.11 422.649 452.696C422.83 452.282 423.076 451.929 423.389 451.633C423.701 451.338 424.072 451.109 424.499 450.945C424.926 450.782 425.391 450.701 425.891 450.701C426.39 450.701 426.823 450.78 427.23 450.941C427.637 451.1 427.989 451.322 428.288 451.603C428.587 451.884 428.826 452.221 429.002 452.613C429.179 453.006 429.279 453.436 429.299 453.901L424.097 455.1H424.101ZM425.967 451.972C425.349 451.972 424.861 452.144 424.502 452.487C424.144 452.832 423.948 453.3 423.913 453.889L427.666 452.993C427.485 452.631 427.249 452.372 426.956 452.211C426.664 452.052 426.334 451.971 425.966 451.971L425.967 451.972Z" fill="#1B1B1B"/>
<path d="M366.053 546.609V557.817H363.435V546.609H366.053ZM366.053 558.635V565.22H363.435V560.721H353.25V558.635H366.053ZM361.472 547.693V549.779H357.729C357.75 551.957 359.12 554.248 362.167 555.158L360.838 557.183C358.752 556.539 357.279 555.199 356.441 553.501C355.592 555.342 354.079 556.804 351.9 557.53L350.551 555.506C353.618 554.514 355.05 552.1 355.07 549.779H351.246V547.693H361.472ZM379 547.959V549.125C379 550.413 379 552.274 378.57 554.585L376.014 554.34C376.341 552.55 376.423 551.2 376.443 550.086H369.428V547.959H379ZM374.377 552.254V555.812C376.228 555.741 378.13 555.598 379.879 555.342L380.022 557.224C376.157 557.939 371.78 558.001 368.548 558.021L368.323 555.935C369.367 555.935 370.543 555.935 371.78 555.894V552.254H374.377ZM383.56 546.609V552.274H385.81V554.463H383.56V560.537H380.881V546.609H383.56ZM384.133 562.807V564.893H371.064V559.289H373.682V562.807H384.133ZM399.431 548.531V553.379H401.292V546.875H403.747V564.361H401.292V555.465H399.431V560.537H392.028V548.531H399.431ZM394.461 550.597V558.492H396.997V550.597H394.461ZM407.633 546.609V565.22H405.137V546.609H407.633ZM425.181 546.609V565.261H422.542V546.609H425.181ZM415.077 547.918C417.879 547.918 419.965 550.495 419.965 554.544C419.965 558.635 417.879 561.191 415.077 561.191C412.214 561.191 410.128 558.635 410.148 554.544C410.128 550.495 412.214 547.918 415.077 547.918ZM415.077 550.27C413.625 550.27 412.664 551.783 412.664 554.544C412.664 557.326 413.625 558.819 415.077 558.819C416.488 558.819 417.45 557.326 417.45 554.544C417.45 551.783 416.488 550.27 415.077 550.27ZM442.872 556.222V558.287H429.701V547.979H442.729V550.086H432.359V552.049H442.299V554.094H432.359V556.222H442.872ZM444.733 560.926V563.053H427.696V560.926H444.733ZM465.615 547.693V549.37C465.615 551.108 465.615 553.011 465.144 555.608H467.598V557.715H460.338V565.241H457.72V557.715H450.623V555.608H462.506C462.976 553.205 463.017 551.385 463.017 549.779H452.566V547.693H465.615ZM483.408 546.609V553.89H486.149V556.037H483.408V565.22H480.831V546.609H483.408ZM479.563 549.39V551.477H468.621V549.39H472.834V546.895H475.452V549.39H479.563ZM474.143 552.52C476.863 552.52 478.888 554.36 478.888 556.958C478.888 559.555 476.863 561.396 474.143 561.396C471.403 561.396 469.378 559.555 469.378 556.958C469.378 554.36 471.403 552.52 474.143 552.52ZM474.143 554.626C472.834 554.647 471.873 555.526 471.873 556.958C471.873 558.41 472.834 559.269 474.143 559.248C475.452 559.269 476.393 558.41 476.393 556.958C476.393 555.526 475.452 554.647 474.143 554.626ZM502.469 546.609V565.22H499.831V546.609H502.469ZM496.886 548.552C496.886 554.197 494.902 558.88 488.255 562.03L486.885 559.944C491.691 557.674 493.808 554.728 494.227 550.597H487.887V548.552H496.886Z" fill="#0E0E0E"/>
<rect x="349.917" y="591.818" width="739.167" height="138.962" rx="12.3194" fill="#FAFAFA"/>
<mask id="path-57-inside-2_2377_17407" fill="white">
<path d="M368.396 610.297H436.034V644.544H368.396V610.297Z"/>
</mask>
<path d="M436.034 644.544V643.928H368.396V644.544V645.16H436.034V644.544Z" fill="#0E0E0E" mask="url(#path-57-inside-2_2377_17407)"/>
<path d="M390.183 622.127V628.48H388.848V627.277H386.261V626.194H388.848V625.027H386.369C385.678 626.759 384.095 627.968 381.725 628.624L381.184 627.565C383.729 626.874 385.082 625.586 385.299 623.968H381.762V622.885H386.754C386.754 623.264 386.724 623.625 386.658 623.968H388.848V622.127H390.183ZM386.586 628.6C388.787 628.6 390.255 629.43 390.255 630.765C390.255 632.101 388.787 632.931 386.586 632.931C384.36 632.931 382.892 632.101 382.892 630.765C382.892 629.43 384.36 628.6 386.586 628.6ZM386.586 629.647C385.118 629.647 384.228 630.044 384.228 630.765C384.228 631.475 385.118 631.872 386.586 631.872C388.017 631.872 388.92 631.475 388.92 630.765C388.92 630.044 388.017 629.647 386.586 629.647ZM400.806 622.115V632.991H399.459V622.115H400.806ZM397.558 623.27C397.558 626.507 396.307 629.262 392.493 631.066L391.795 629.995C394.64 628.642 395.964 626.801 396.198 624.329H392.349V623.27H397.558ZM411.477 622.115V628.576H410.142V625.917H408.289V624.822H410.142V622.115H411.477ZM407.796 628.853C410.106 628.853 411.513 629.611 411.513 630.922C411.513 632.233 410.106 632.991 407.796 632.991C405.498 632.991 404.091 632.233 404.103 630.922C404.091 629.611 405.498 628.853 407.796 628.853ZM407.796 629.875C406.28 629.875 405.426 630.236 405.426 630.922C405.426 631.596 406.28 631.957 407.796 631.957C409.312 631.957 410.178 631.596 410.178 630.922C410.178 630.236 409.312 629.875 407.796 629.875ZM406.364 623.98C406.364 625.304 407.243 626.639 408.927 627.204L408.253 628.263C407.044 627.854 406.184 627.024 405.715 626.001C405.233 627.162 404.325 628.089 403.032 628.552L402.334 627.493C404.078 626.892 405.005 625.424 405.005 623.992V623.908H402.743V622.825H408.614V623.908H406.364V623.98ZM422.955 630.585V631.68H413.017V630.585H417.3V628.468H414.112V622.837H415.447V624.618H420.488V622.837H421.824V628.468H418.624V630.585H422.955ZM415.447 627.385H420.488V625.689H415.447V627.385Z" fill="#0E0E0E"/>
<path d="M464.812 630.573V631.668H454.875V630.573H459.158V628.203H455.969V622.958H463.669V628.203H460.481V630.573H464.812ZM457.281 624.028V627.156H462.346V624.028H457.281ZM471.934 622.765V623.836H469.648C469.666 625.111 470.605 626.332 472.319 626.819L471.645 627.866C470.388 627.493 469.48 626.705 468.987 625.701C468.499 626.783 467.567 627.637 466.268 628.047L465.594 627C467.332 626.489 468.271 625.183 468.301 623.836H465.955V622.765H471.934ZM474.581 622.115V628.01H473.233V622.115H474.581ZM468.71 628.492V629.611H473.245V628.492H474.581V632.859H467.387V628.492H468.71ZM468.71 631.776H473.245V630.645H468.71V631.776ZM488.2 622.115V628.576H486.864V625.917H485.012V624.822H486.864V622.115H488.2ZM484.518 628.853C486.828 628.853 488.236 629.611 488.236 630.922C488.236 632.233 486.828 632.991 484.518 632.991C482.22 632.991 480.813 632.233 480.825 630.922C480.813 629.611 482.22 628.853 484.518 628.853ZM484.518 629.875C483.002 629.875 482.148 630.236 482.148 630.922C482.148 631.596 483.002 631.957 484.518 631.957C486.034 631.957 486.9 631.596 486.9 630.922C486.9 630.236 486.034 629.875 484.518 629.875ZM483.087 623.98C483.087 625.304 483.965 626.639 485.649 627.204L484.975 628.263C483.766 627.854 482.906 627.024 482.437 626.001C481.956 627.162 481.047 628.089 479.754 628.552L479.056 627.493C480.801 626.892 481.727 625.424 481.727 623.992V623.908H479.465V622.825H485.336V623.908H483.087V623.98ZM499.677 630.585V631.68H489.74V630.585H494.023V628.468H490.834V622.837H492.17V624.618H497.211V622.837H498.546V628.468H495.346V630.585H499.677ZM492.17 627.385H497.211V625.689H492.17V627.385Z" fill="#95969B"/>
<path d="M535.571 624.004C535.571 625.34 536.437 626.663 538.145 627.228L537.472 628.263C536.257 627.86 535.39 627.042 534.921 626.025C534.434 627.138 533.532 628.022 532.262 628.456L531.553 627.421C533.309 626.843 534.223 625.436 534.223 624.004V623.872H531.926V622.801H537.833V623.872H535.571V624.004ZM540.251 622.115V624.834H541.767V625.953H540.251V628.672H538.915V622.115H540.251ZM540.251 629.177V632.991H538.915V630.248H533.008V629.177H540.251ZM546.302 623.679C546.29 625.159 547.156 626.507 548.865 627.048L548.143 628.095C546.958 627.68 546.128 626.892 545.665 625.857C545.183 627.042 544.275 627.974 542.958 628.432L542.248 627.349C544.053 626.759 544.955 625.304 544.955 623.74V622.705H546.302V623.679ZM551.427 622.115V628.516H550.092V625.316H547.926V624.221H550.092V622.115H551.427ZM547.746 628.804C550.056 628.804 551.463 629.574 551.463 630.898C551.463 632.221 550.056 632.979 547.746 632.979C545.448 632.979 544.041 632.221 544.053 630.898C544.041 629.574 545.448 628.804 547.746 628.804ZM547.746 629.839C546.23 629.839 545.376 630.212 545.376 630.898C545.376 631.559 546.23 631.932 547.746 631.932C549.262 631.932 550.128 631.559 550.128 630.898C550.128 630.212 549.262 629.839 547.746 629.839ZM556.865 625.207C556.865 626.892 557.864 628.804 559.584 629.598L558.838 630.657C557.611 630.08 556.703 628.913 556.216 627.553C555.722 629.045 554.772 630.32 553.521 630.922L552.739 629.875C554.471 629.057 555.518 627.012 555.53 625.207V624.293H553.16V623.186H559.139V624.293H556.865V625.207ZM561.485 622.115V626.35H563.157V627.469H561.485V632.991H560.15V622.115H561.485ZM575.645 622.115V628.576H574.31V625.917H572.457V624.822H574.31V622.115H575.645ZM571.964 628.853C574.274 628.853 575.681 629.611 575.681 630.922C575.681 632.233 574.274 632.991 571.964 632.991C569.666 632.991 568.258 632.233 568.27 630.922C568.258 629.611 569.666 628.853 571.964 628.853ZM571.964 629.875C570.448 629.875 569.594 630.236 569.594 630.922C569.594 631.596 570.448 631.957 571.964 631.957C573.48 631.957 574.346 631.596 574.346 630.922C574.346 630.236 573.48 629.875 571.964 629.875ZM570.532 623.98C570.532 625.304 571.41 626.639 573.095 627.204L572.421 628.263C571.212 627.854 570.352 627.024 569.882 626.001C569.401 627.162 568.493 628.089 567.2 628.552L566.502 627.493C568.246 626.892 569.173 625.424 569.173 623.992V623.908H566.911V622.825H572.782V623.908H570.532V623.98ZM587.122 630.585V631.68H577.185V630.585H581.468V628.468H578.28V622.837H579.615V624.618H584.656V622.837H585.992V628.468H582.791V630.585H587.122ZM579.615 627.385H584.656V625.689H579.615V627.385Z" fill="#95969B"/>
<rect x="368.703" y="675.651" width="214.974" height="36.3424" rx="8.31563" fill="#FAFAFA" stroke="#DDDEE0" stroke-width="0.615972"/>
<path d="M390.317 688.46V694.242H389.461V692.943H386.906V692.239H389.461V690.94H387.003C386.37 692.488 384.881 693.609 382.824 694.221L382.467 693.549C384.794 692.856 386.24 691.557 386.419 689.89H382.954V689.175H387.339C387.339 689.554 387.296 689.917 387.22 690.258H389.461V688.46H390.317ZM387.166 694.34C389.115 694.34 390.371 695.033 390.371 696.18C390.371 697.339 389.115 698.032 387.166 698.032C385.195 698.032 383.95 697.339 383.95 696.18C383.95 695.033 385.195 694.34 387.166 694.34ZM387.166 695.022C385.715 695.011 384.784 695.455 384.784 696.18C384.784 696.906 385.715 697.339 387.166 697.339C388.595 697.339 389.515 696.906 389.526 696.18C389.515 695.455 388.595 695.011 387.166 695.022ZM399.877 688.45V698.075H399.022V688.45H399.877ZM397.03 689.5C397.019 692.272 395.73 694.719 392.504 696.267L392.038 695.574C394.642 694.34 395.969 692.494 396.163 690.193H392.482V689.5H397.03ZM411.809 688.45V690.463H413.26V691.178H411.809V693.311H410.965V688.45H411.809ZM405.605 688.883V692.109C406.975 692.115 408.388 692.017 409.947 691.698L410.055 692.412C408.41 692.748 406.969 692.846 405.519 692.846H404.75V688.883H405.605ZM411.809 693.777V696.126H406.536V697.252H412.167V697.945H405.692V695.455H410.965V694.459H405.67V693.777H411.809ZM421.543 688.45V692.282H422.908V693.008H421.543V698.075H420.688V688.45H421.543ZM416.054 691.351C416.054 692.402 416.2 693.966 417.007 695.011C417.786 693.993 417.949 692.45 417.959 691.351V690.149H417.212V689.435H419.887V690.149H418.761V691.351C418.761 692.77 419.086 694.567 420.287 695.433L419.724 696.061C419.01 695.509 418.588 694.594 418.36 693.593C418.144 694.61 417.738 695.569 416.996 696.137C416.26 695.569 415.859 694.6 415.642 693.593C415.41 694.589 414.993 695.504 414.289 696.061L413.726 695.433C414.906 694.556 415.242 692.705 415.253 691.351V690.149H414.04V689.435H416.79V690.149H416.054V691.351ZM429.523 690.269C429.523 691.611 430.498 692.878 431.905 693.387L431.429 694.047C430.373 693.625 429.534 692.786 429.123 691.741C428.711 692.905 427.834 693.831 426.697 694.286L426.243 693.593C427.683 693.062 428.679 691.719 428.69 690.236V689.045H429.523V690.269ZM434.212 688.46V695.672H433.356V691.438H431.213V690.723H433.356V688.46H434.212ZM434.428 697.155V697.87H427.986V694.849H428.841V697.155H434.428ZM439.983 689.153V689.868H437.059V691.07H439.875V691.741H437.059V693.073C438.462 693.067 439.339 693.019 440.373 692.813L440.459 693.517C439.333 693.733 438.424 693.788 436.854 693.788H436.247V689.153H439.983ZM443.989 688.46V694.296H443.177V691.665H441.824V694.231H441.033V688.644H441.824V690.972H443.177V688.46H443.989ZM443.989 694.795V698.075H443.155V695.487H437.503V694.795H443.989Z" fill="#95969B"/>
<path d="M568.278 691.542V698.01C568.278 698.52 567.865 698.934 567.354 698.934H558.731C558.221 698.934 557.807 698.52 557.807 698.01V691.542H568.278Z" stroke="#95969B" stroke-width="0.615972"/>
<path d="M568.278 691.543V690.618C568.278 690.108 567.865 689.694 567.354 689.694H558.731C558.221 689.694 557.807 690.108 557.807 690.618V691.543H568.278Z" stroke="#95969B" stroke-width="0.615972"/>
<rect x="559.347" y="692.466" width="1.23194" height="1.23194" rx="0.492778" fill="#95969B"/>
<rect x="559.347" y="694.314" width="1.23194" height="1.23194" rx="0.492778" fill="#95969B"/>
<rect x="562.427" y="692.466" width="1.23194" height="1.23194" rx="0.492778" fill="#95969B"/>
<rect x="562.427" y="694.314" width="1.23194" height="1.23194" rx="0.492778" fill="#95969B"/>
<rect x="565.507" y="692.466" width="1.23194" height="1.23194" rx="0.492778" fill="#95969B"/>
<rect x="565.507" y="694.314" width="1.23194" height="1.23194" rx="0.492778" fill="#95969B"/>
<path d="M563.043 688.771V690.002" stroke="#95969B" stroke-width="0.862361" stroke-linecap="round"/>
<path d="M566.739 688.771V690.002" stroke="#95969B" stroke-width="0.862361" stroke-linecap="round"/>
<path d="M559.347 688.771V690.002" stroke="#95969B" stroke-width="0.862361" stroke-linecap="round"/>
<rect x="612.013" y="675.651" width="214.974" height="36.3424" rx="8.31563" fill="#FAFAFA" stroke="#DDDEE0" stroke-width="0.615972"/>
<path d="M633.626 688.46V694.242H632.77V692.943H630.215V692.239H632.77V690.94H630.312C629.679 692.488 628.19 693.609 626.133 694.221L625.776 693.549C628.104 692.856 629.549 691.557 629.728 689.89H626.263V689.175H630.648C630.648 689.554 630.605 689.917 630.529 690.258H632.77V688.46H633.626ZM630.475 694.34C632.424 694.34 633.68 695.033 633.68 696.18C633.68 697.339 632.424 698.032 630.475 698.032C628.504 698.032 627.259 697.339 627.259 696.18C627.259 695.033 628.504 694.34 630.475 694.34ZM630.475 695.022C629.024 695.011 628.093 695.455 628.093 696.18C628.093 696.906 629.024 697.339 630.475 697.339C631.904 697.339 632.824 696.906 632.835 696.18C632.824 695.455 631.904 695.011 630.475 695.022ZM643.186 688.45V698.075H642.331V688.45H643.186ZM640.339 689.5C640.328 692.272 639.039 694.719 635.813 696.267L635.347 695.574C637.951 694.34 639.278 692.494 639.473 690.193H635.791V689.5H640.339ZM652.26 688.45V692.423H653.873V693.127H652.26V698.075H651.415V688.45H652.26ZM650.484 689.998V690.702H644.756V689.998H647.236V688.569H648.081V689.998H650.484ZM647.669 691.503C649.033 691.503 650.019 692.412 650.029 693.712C650.019 695.011 649.033 695.921 647.669 695.921C646.294 695.921 645.298 695.011 645.309 693.712C645.298 692.412 646.294 691.503 647.669 691.503ZM647.669 692.218C646.77 692.218 646.11 692.846 646.121 693.712C646.11 694.589 646.77 695.206 647.669 695.195C648.557 695.206 649.207 694.589 649.217 693.712C649.207 692.846 648.557 692.218 647.669 692.218ZM662.178 691.373V692.055H655.584V688.807H656.429V691.373H662.178ZM663.196 693.365V694.058H654.382V693.365H663.196ZM662.232 697.133V697.837H655.53V695.044H656.374V697.133H662.232ZM674.37 689.078V689.922C674.37 690.837 674.37 691.828 674.099 693.214H675.529V693.917H671.555V698.097H670.699V693.917H666.758V693.214H673.233C673.525 691.828 673.525 690.815 673.525 689.922V689.781H667.863V689.078H674.37ZM679.6 690.279C679.6 691.535 680.542 692.661 681.96 693.127L681.56 693.798C680.45 693.436 679.611 692.667 679.199 691.698C678.782 692.802 677.894 693.663 676.741 694.08L676.308 693.398C677.748 692.91 678.755 691.665 678.766 690.279V689.868H676.568V689.164H681.765V689.868H679.6V690.279ZM683.866 688.45V690.907H685.317V691.622H683.866V694.264H683.021V688.45H683.866ZM680.78 694.524C682.761 694.524 683.952 695.173 683.952 696.278C683.952 697.404 682.761 698.054 680.78 698.054C678.799 698.054 677.586 697.404 677.586 696.278C677.586 695.173 678.799 694.524 680.78 694.524ZM680.78 695.206C679.329 695.206 678.43 695.607 678.441 696.278C678.43 696.971 679.329 697.371 680.78 697.371C682.242 697.371 683.13 696.971 683.13 696.278C683.13 695.607 682.242 695.206 680.78 695.206ZM690.308 688.623C692.452 688.623 693.708 689.207 693.708 690.279C693.708 691.373 692.452 691.958 690.308 691.968C688.164 691.958 686.898 691.373 686.898 690.279C686.898 689.207 688.164 688.623 690.308 688.623ZM690.308 689.262C688.706 689.262 687.775 689.651 687.785 690.279C687.775 690.951 688.706 691.319 690.308 691.319C691.9 691.319 692.842 690.951 692.842 690.279C692.842 689.651 691.9 689.262 690.308 689.262ZM694.693 692.618V693.311H685.923V692.618H694.693ZM693.567 694.145V696.3H687.85V697.296H693.86V697.967H687.006V695.672H692.734V694.795H686.984V694.145H693.567ZM701.58 690.269C701.58 691.611 702.554 692.878 703.962 693.387L703.486 694.047C702.43 693.625 701.591 692.786 701.179 691.741C700.768 692.905 699.891 693.831 698.754 694.286L698.299 693.593C699.739 693.062 700.735 691.719 700.746 690.236V689.045H701.58V690.269ZM706.268 688.46V695.672H705.413V691.438H703.269V690.723H705.413V688.46H706.268ZM706.485 697.155V697.87H700.042V694.849H700.898V697.155H706.485ZM712.039 689.153V689.868H709.116V691.07H711.931V691.741H709.116V693.073C710.518 693.067 711.395 693.019 712.429 692.813L712.516 693.517C711.39 693.733 710.48 693.788 708.91 693.788H708.304V689.153H712.039ZM716.046 688.46V694.296H715.234V691.665H713.88V694.231H713.09V688.644H713.88V690.972H715.234V688.46H716.046ZM716.046 694.795V698.075H715.212V695.487H709.56V694.795H716.046ZM722.261 690.117V690.81H717.432V690.117H719.435V688.742H720.279V690.117H722.261ZM719.846 691.46C721.059 691.46 721.925 692.369 721.936 693.647C721.925 694.935 721.059 695.856 719.846 695.856C718.644 695.856 717.778 694.935 717.778 693.647C717.778 692.369 718.644 691.46 719.846 691.46ZM719.846 692.174C719.088 692.185 718.536 692.802 718.536 693.647C718.536 694.502 719.088 695.119 719.846 695.109C720.615 695.119 721.178 694.502 721.178 693.647C721.178 692.802 720.615 692.185 719.846 692.174ZM725.65 688.45V698.075H724.838V693.214H723.56V697.599H722.759V688.688H723.56V692.51H724.838V688.45H725.65ZM731.897 689.814C731.886 691.102 733.608 692.196 735.286 692.445L734.972 693.116C733.467 692.862 732.006 692.061 731.421 690.897C730.836 692.061 729.369 692.862 727.891 693.116L727.555 692.445C729.223 692.196 730.944 691.102 730.944 689.814V689.749H727.859V689.056H734.972V689.749H731.897V689.814ZM735.806 693.939V694.643H731.821V698.075H730.988V694.643H727.036V693.939H735.806ZM739.477 691.189C739.477 692.716 740.224 694.372 741.501 695.13L741.014 695.791C740.088 695.228 739.422 694.199 739.087 693.03C738.729 694.307 738.015 695.406 737.051 695.996L736.51 695.358C737.842 694.578 738.654 692.867 738.654 691.221V689.359H739.477V691.189ZM744.869 688.45V698.075H744.046V688.45H744.869ZM742.876 688.655V697.588H742.075V692.629H740.44V691.904H742.075V688.655H742.876ZM755.014 696.126V696.841H746.201V696.126H748.388V693.528C747.565 693.1 747.067 692.407 747.067 691.535C747.067 690.041 748.529 689.067 750.586 689.056C752.643 689.067 754.105 690.041 754.105 691.535C754.105 692.391 753.623 693.078 752.827 693.506V696.126H755.014ZM750.586 689.76C749.005 689.749 747.89 690.463 747.89 691.535C747.89 692.607 749.005 693.333 750.586 693.333C752.156 693.333 753.282 692.607 753.282 691.535C753.282 690.463 752.156 689.749 750.586 689.76ZM749.221 696.126H751.972V693.831C751.555 693.945 751.089 694.004 750.586 694.004C750.093 694.004 749.633 693.95 749.221 693.842V696.126Z" fill="#95969B"/>
<path d="M800.808 691.234L806.376 696.162L811.896 691.234" stroke="#95969B" stroke-width="1.23194" stroke-linecap="round" stroke-linejoin="round"/>
<rect x="855.322" y="675.651" width="214.974" height="36.3424" rx="8.31563" fill="#FAFAFA" stroke="#DDDEE0" stroke-width="0.615972"/>
<path d="M874.13 689.045V689.749H870.373V690.951H873.86V691.633H870.373V692.91C872.425 692.921 873.562 692.873 874.921 692.64L875.007 693.333C873.6 693.582 872.42 693.603 870.297 693.603H869.518V689.045H874.13ZM876.902 688.46V694.199H876.058V688.46H876.902ZM876.902 694.675V697.945H870.644V694.675H876.902ZM871.478 695.358V697.252H876.068V695.358H871.478ZM884.611 690.269C884.611 691.611 885.586 692.878 886.994 693.387L886.517 694.047C885.461 693.625 884.622 692.786 884.211 691.741C883.799 692.905 882.922 693.831 881.785 694.286L881.331 693.593C882.771 693.062 883.767 691.719 883.778 690.236V689.045H884.611V690.269ZM889.3 688.46V695.672H888.444V691.438H886.301V690.723H888.444V688.46H889.3ZM889.516 697.155V697.87H883.074V694.849H883.929V697.155H889.516ZM895.071 689.153V689.868H892.148V691.07H894.963V691.741H892.148V693.073C893.55 693.067 894.427 693.019 895.461 692.813L895.547 693.517C894.421 693.733 893.512 693.788 891.942 693.788H891.335V689.153H895.071ZM899.077 688.46V694.296H898.265V691.665H896.912V694.231H896.121V688.644H896.912V690.972H898.265V688.46H899.077ZM899.077 694.795V698.075H898.243V695.487H892.591V694.795H899.077Z" fill="#95969B"/>
<path d="M1044.12 691.234L1049.69 696.162L1055.2 691.234" stroke="#95969B" stroke-width="1.23194" stroke-linecap="round" stroke-linejoin="round"/>
<rect x="349.917" y="773.898" width="739.167" height="371.431" rx="12.3194" fill="#FAFAFA"/>
<path d="M349.917 784.986C349.917 778.862 354.881 773.898 361.004 773.898H1078C1084.12 773.898 1089.08 778.862 1089.08 784.986V820.096H349.917V784.986Z" fill="#F5F5F5"/>
<path d="M382.925 791.759V798.884H382.07V795.181H379.796V797.238H375.432V792.398H376.277V794.109H378.962V792.398H379.796V794.466H382.07V791.759H382.925ZM383.141 800.454V801.168H376.699V798.18H377.554V800.454H383.141ZM376.277 796.534H378.962V794.78H376.277V796.534ZM392.843 793.178V793.881H384.961V793.178H388.49V791.911H389.324V793.178H392.843ZM393.341 799.544V800.248H384.527V799.544H388.49V798.191C386.78 798.099 385.74 797.433 385.751 796.35C385.74 795.202 386.953 794.531 388.913 794.542C390.851 794.531 392.074 795.202 392.074 796.35C392.074 797.433 391.024 798.099 389.324 798.191V799.544H393.341ZM388.913 795.213C387.473 795.213 386.596 795.635 386.606 796.35C386.596 797.086 387.473 797.498 388.913 797.509C390.331 797.498 391.208 797.086 391.208 796.35C391.208 795.635 390.331 795.213 388.913 795.213Z" fill="#57585C"/>
<path d="M429.412 791.759V797.541H428.556V796.242H426.001V795.538H428.556V794.239H426.098C425.465 795.787 423.976 796.908 421.919 797.519L421.562 796.848C423.89 796.155 425.335 794.856 425.514 793.188H422.049V792.474H426.434C426.434 792.853 426.391 793.215 426.315 793.557H428.556V791.759H429.412ZM426.261 797.639C428.21 797.639 429.466 798.332 429.466 799.479C429.466 800.638 428.21 801.331 426.261 801.331C424.29 801.331 423.045 800.638 423.045 799.479C423.045 798.332 424.29 797.639 426.261 797.639ZM426.261 798.321C424.81 798.31 423.879 798.754 423.879 799.479C423.879 800.205 424.81 800.638 426.261 800.638C427.69 800.638 428.611 800.205 428.621 799.479C428.611 798.754 427.69 798.31 426.261 798.321ZM438.973 791.748V801.374H438.117V791.748H438.973ZM436.125 792.799C436.114 795.57 434.826 798.018 431.599 799.566L431.133 798.873C433.737 797.639 435.064 795.792 435.259 793.492H431.577V792.799H436.125ZM448.555 792.344V793.048H444.798V794.25H448.284V794.932H444.798V796.209C446.85 796.22 447.987 796.171 449.345 795.939L449.432 796.632C448.024 796.881 446.844 796.902 444.722 796.902H443.942V792.344H448.555ZM451.327 791.759V797.498H450.482V791.759H451.327ZM451.327 797.974V801.244H445.069V797.974H451.327ZM445.902 798.656V800.551H450.493V798.656H445.902Z" fill="#57585C"/>
<path d="M509.488 791.759V797.541H508.633V796.242H506.078V795.538H508.633V794.239H506.175C505.542 795.787 504.053 796.908 501.996 797.519L501.638 796.848C503.966 796.155 505.412 794.856 505.59 793.188H502.126V792.474H506.511C506.511 792.853 506.468 793.215 506.392 793.557H508.633V791.759H509.488ZM506.338 797.639C508.287 797.639 509.543 798.332 509.543 799.479C509.543 800.638 508.287 801.331 506.338 801.331C504.367 801.331 503.122 800.638 503.122 799.479C503.122 798.332 504.367 797.639 506.338 797.639ZM506.338 798.321C504.887 798.31 503.955 798.754 503.955 799.479C503.955 800.205 504.887 800.638 506.338 800.638C507.767 800.638 508.687 800.205 508.698 799.479C508.687 798.754 507.767 798.31 506.338 798.321ZM519.049 791.748V801.374H518.194V791.748H519.049ZM516.202 792.799C516.191 795.57 514.902 798.018 511.676 799.566L511.21 798.873C513.814 797.639 515.14 795.792 515.335 793.492H511.654V792.799H516.202ZM523.402 792.106C524.842 792.116 525.892 792.983 525.892 794.239C525.892 795.495 524.842 796.361 523.402 796.361C521.94 796.361 520.901 795.495 520.901 794.239C520.901 792.983 521.94 792.116 523.402 792.106ZM523.402 792.82C522.438 792.82 521.724 793.405 521.734 794.239C521.724 795.083 522.438 795.668 523.402 795.668C524.355 795.668 525.069 795.083 525.069 794.239C525.069 793.405 524.355 792.82 523.402 792.82ZM528.621 791.748V796.697H527.776V791.748H528.621ZM528.621 797.162V799.479H523.218V800.562H528.967V801.244H522.384V798.84H527.776V797.844H522.362V797.162H528.621ZM533.515 794.704C533.504 796.253 534.619 797.953 536.016 798.613L535.529 799.284C534.446 798.759 533.531 797.612 533.103 796.307C532.66 797.725 531.69 798.97 530.613 799.523L530.093 798.851C531.479 798.18 532.67 796.35 532.681 794.704V793.448H530.44V792.744H535.68V793.448H533.515V794.704ZM537.705 791.748V795.646H539.319V796.372H537.705V801.374H536.861V791.748H537.705Z" fill="#57585C"/>
<path d="M581.517 791.748V801.374H580.705V791.748H581.517ZM579.568 791.987V800.876H578.767V795.917H577.143V795.224H578.767V791.987H579.568ZM576.114 794.499C576.114 796.166 576.861 797.823 578.193 798.591L577.673 799.219C576.726 798.651 576.055 797.612 575.724 796.383C575.373 797.709 574.674 798.84 573.711 799.447L573.169 798.808C574.512 798.007 575.291 796.253 575.291 794.499V793.589H573.44V792.885H577.879V793.589H576.114V794.499ZM590.526 792.16V795.408H587.678V796.642H591.641V797.335H582.871V796.642H586.834V795.408H584.008V792.16H590.526ZM584.841 792.842V794.726H589.681V792.842H584.841ZM590.558 798.342V801.374H589.703V799.025H583.845V798.342H590.558Z" fill="#57585C"/>
<path d="M889.358 799.425V800.14H880.544V799.425H884.507V797.076H881.584V792.56H888.264V797.076H885.341V799.425H889.358ZM882.417 793.243V796.393H887.441V793.243H882.417ZM893.591 793.34C893.591 794.596 894.642 795.711 896.071 796.144L895.638 796.816C894.512 796.458 893.608 795.684 893.169 794.693C892.747 795.755 891.837 796.583 890.69 796.978L890.246 796.307C891.697 795.852 892.736 794.661 892.736 793.34V793.091H890.484V792.398H895.811V793.091H893.591V793.34ZM898.074 791.748V796.956H897.229V791.748H898.074ZM892.682 797.433V798.602H897.229V797.433H898.074V801.244H891.837V797.433H892.682ZM892.682 800.551H897.229V799.284H892.682V800.551ZM905.708 793.308C905.708 794.618 906.704 795.82 908.1 796.296L907.635 796.967C906.568 796.577 905.729 795.782 905.307 794.78C904.895 795.912 904.04 796.805 902.914 797.238L902.459 796.556C903.899 796.014 904.863 794.726 904.874 793.243V792.246H905.708V793.308ZM910.017 791.748V794.26H911.468V794.975H910.017V797.606H909.172V791.748H910.017ZM906.931 797.855C908.913 797.855 910.104 798.494 910.104 799.598C910.104 800.724 908.913 801.352 906.931 801.352C904.95 801.352 903.737 800.724 903.737 799.598C903.737 798.494 904.95 797.855 906.931 797.855ZM906.931 798.537C905.48 798.537 904.581 798.938 904.592 799.598C904.581 800.281 905.48 800.67 906.931 800.681C908.393 800.67 909.281 800.281 909.281 799.598C909.281 798.938 908.393 798.537 906.931 798.537ZM916.275 792.864V793.557H913.276V795.408H916.135V796.09H913.276V798.267C914.705 798.261 915.588 798.223 916.643 798.028L916.719 798.732C915.593 798.949 914.662 798.992 913.081 798.992H912.464V792.864H916.275ZM920.325 791.748V801.374H919.502V796.328H918.181V800.887H917.358V791.954H918.181V795.625H919.502V791.748H920.325Z" fill="#57585C"/>
<path d="M964.609 793.535C964.609 794.813 965.551 795.982 966.981 796.48L966.548 797.141C965.449 796.751 964.609 795.96 964.198 794.964C963.786 796.058 962.904 796.908 961.773 797.325L961.318 796.664C962.758 796.155 963.765 794.91 963.776 793.535V793.123H961.578V792.43H966.775V793.123H964.609V793.535ZM968.875 791.748V794.293H970.326V795.018H968.875V797.552H968.031V791.748H968.875ZM968.875 798.061V801.374H968.031V798.754H962.574V798.061H968.875ZM974.246 793.264C974.235 794.639 975.21 795.852 976.628 796.328L976.152 796.989C975.091 796.588 974.257 795.809 973.845 794.791C973.428 795.944 972.546 796.843 971.387 797.281L970.922 796.588C972.405 796.069 973.391 794.791 973.401 793.297V792.301H974.246V793.264ZM978.913 791.748V797.455H978.057V794.52H975.913V793.816H978.057V791.748H978.913ZM975.719 797.736C977.722 797.736 978.945 798.397 978.945 799.555C978.945 800.703 977.722 801.352 975.719 801.352C973.715 801.352 972.492 800.703 972.492 799.555C972.492 798.397 973.715 797.736 975.719 797.736ZM975.719 798.407C974.246 798.407 973.326 798.84 973.336 799.555C973.326 800.248 974.246 800.67 975.719 800.67C977.191 800.67 978.101 800.248 978.101 799.555C978.101 798.84 977.191 798.407 975.719 798.407ZM983.774 794.704C983.763 796.253 984.879 797.953 986.275 798.613L985.788 799.284C984.705 798.759 983.791 797.612 983.363 796.307C982.919 797.725 981.95 798.97 980.872 799.523L980.353 798.851C981.739 798.18 982.93 796.35 982.941 794.704V793.448H980.699V792.744H985.94V793.448H983.774V794.704ZM987.965 791.748V795.646H989.578V796.372H987.965V801.374H987.12V791.748H987.965Z" fill="#57585C"/>
<path d="M1034.07 791.748V801.374H1033.26V791.748H1034.07ZM1032.05 792.008V800.887H1031.24V796.393H1029.2C1028.61 797.514 1027.69 798.505 1026.34 799.295L1025.84 798.678C1027.94 797.438 1028.99 795.7 1029.15 793.686H1026.26V792.983H1029.99C1029.99 793.93 1029.83 794.845 1029.52 795.7H1031.24V792.008H1032.05ZM1038.84 794.336C1038.83 796.09 1040.03 797.866 1041.45 798.505L1040.93 799.176C1039.83 798.64 1038.89 797.509 1038.43 796.134C1037.98 797.59 1037.03 798.803 1035.9 799.371L1035.36 798.656C1036.79 797.996 1037.98 796.166 1037.99 794.336V792.582H1038.84V794.336ZM1043.35 791.748V801.396H1042.5V791.748H1043.35ZM1047.73 792.106C1049.17 792.116 1050.22 792.983 1050.22 794.239C1050.22 795.495 1049.17 796.361 1047.73 796.361C1046.27 796.361 1045.23 795.495 1045.23 794.239C1045.23 792.983 1046.27 792.116 1047.73 792.106ZM1047.73 792.82C1046.76 792.82 1046.05 793.405 1046.06 794.239C1046.05 795.083 1046.76 795.668 1047.73 795.668C1048.68 795.668 1049.39 795.083 1049.39 794.239C1049.39 793.405 1048.68 792.82 1047.73 792.82ZM1052.95 791.748V796.697H1052.1V791.748H1052.95ZM1052.95 797.162V799.479H1047.54V800.562H1053.29V801.244H1046.71V798.84H1052.1V797.844H1046.69V797.162H1052.95ZM1057.84 794.704C1057.83 796.253 1058.94 797.953 1060.34 798.613L1059.85 799.284C1058.77 798.759 1057.86 797.612 1057.43 796.307C1056.98 797.725 1056.02 798.97 1054.94 799.523L1054.42 798.851C1055.8 798.18 1057 796.35 1057.01 794.704V793.448H1054.77V792.744H1060.01V793.448H1057.84V794.704ZM1062.03 791.748V795.646H1063.64V796.372H1062.03V801.374H1061.19V791.748H1062.03Z" fill="#57585C"/>
<path d="M377.858 850.807C376.114 850.807 375.118 849.346 375.118 846.78C375.118 844.235 376.136 842.752 377.858 842.752C379.579 842.752 380.597 844.235 380.597 846.78C380.597 849.346 379.59 850.807 377.858 850.807ZM377.858 849.941C378.984 849.941 379.644 848.804 379.644 846.78C379.644 844.755 378.984 843.596 377.858 843.596C376.732 843.596 376.06 844.755 376.06 846.78C376.06 848.804 376.721 849.941 377.858 849.941ZM384.668 842.86V850.699H383.683V843.878H383.64L381.734 845.145V844.159L383.683 842.86H384.668Z" fill="#6F7176"/>
<path d="M429.03 841.929V845.047H430.437V845.903H429.03V849.183H428.001V841.929H429.03ZM427.2 843.055V843.889H421.418V843.055H423.8V841.918H424.829V843.055H427.2ZM424.309 844.354C425.706 844.354 426.659 845.08 426.659 846.184C426.659 847.289 425.706 848.003 424.309 848.003C422.901 848.003 421.948 847.289 421.948 846.184C421.948 845.08 422.901 844.354 424.309 844.354ZM424.309 845.145C423.486 845.145 422.934 845.545 422.945 846.184C422.934 846.812 423.486 847.202 424.309 847.202C425.132 847.202 425.684 846.812 425.695 846.184C425.684 845.545 425.132 845.145 424.309 845.145ZM429.441 850.58V851.414H422.88V848.609H423.908V850.58H429.441ZM438.591 841.918V845.978H440.052V846.845H438.591V851.62H437.562V841.918H438.591ZM430.87 848.978C431.634 848.978 432.522 848.978 433.447 848.945V847.96C432.354 847.808 431.639 847.148 431.65 846.206C431.639 845.112 432.581 844.387 433.967 844.387C435.342 844.387 436.295 845.112 436.306 846.206C436.295 847.148 435.57 847.814 434.476 847.971V848.902C435.337 848.869 436.203 848.799 437.01 848.685L437.075 849.443C434.974 849.822 432.7 849.833 431.033 849.833L430.87 848.978ZM436.869 843.066V843.889H431.055V843.066H433.447V841.94H434.476V843.066H436.869ZM433.967 845.188C433.155 845.188 432.614 845.589 432.614 846.206C432.614 846.823 433.155 847.202 433.967 847.202C434.779 847.202 435.321 846.823 435.321 846.206C435.321 845.589 434.779 845.188 433.967 845.188ZM448.671 844.82L446.538 850.699H445.293L443.16 844.82H444.405L445.888 849.335H445.943L447.426 844.82H448.671ZM452.916 846.422C452.807 845.957 452.439 845.654 451.8 845.654C451.14 845.654 450.663 846 450.674 846.444C450.663 846.79 450.945 847.039 451.595 847.191L452.526 847.408C453.609 847.646 454.128 848.166 454.139 848.999C454.128 850.06 453.24 850.818 451.735 850.818C450.328 850.818 449.483 850.19 449.342 849.097H450.523C450.62 849.627 451.032 849.887 451.724 849.887C452.472 849.887 452.948 849.584 452.959 849.086C452.948 848.707 452.667 848.458 452.049 848.317L451.129 848.122C450.068 847.884 449.516 847.321 449.516 846.509C449.516 845.459 450.425 844.744 451.789 844.744C453.1 844.744 453.912 845.415 454.031 846.422H452.916ZM465.4 845.491V846.303H458.817V842.47H465.281V843.304H459.856V845.491H465.4ZM466.493 847.483V848.317H462.53V851.598H461.524V848.317H457.615V847.483H466.493ZM470.575 843.694C470.575 844.993 471.485 846.217 472.957 846.715L472.427 847.527C471.339 847.142 470.532 846.368 470.099 845.394C469.677 846.482 468.843 847.332 467.706 847.754L467.132 846.942C468.67 846.411 469.558 845.112 469.558 843.661V842.514H470.575V843.694ZM474.831 841.907V844.831H476.238V845.708H474.831V849.064H473.802V841.907H474.831ZM475.253 850.58V851.414H468.691V848.371H469.742V850.58H475.253Z" fill="#29292C"/>
<path d="M502.425 850.699L502.414 849.985L505.088 847.169C506.02 846.184 506.463 845.654 506.463 844.928C506.463 844.127 505.781 843.596 504.904 843.596C503.973 843.596 503.378 844.192 503.378 845.069H502.457C502.446 843.683 503.518 842.752 504.937 842.752C506.355 842.752 507.373 843.705 507.373 844.928C507.373 845.805 506.962 846.487 505.576 847.917L503.778 849.768V849.833H507.514V850.699H502.425ZM511.498 850.807C509.755 850.807 508.759 849.346 508.759 846.78C508.759 844.235 509.777 842.752 511.498 842.752C513.22 842.752 514.238 844.235 514.238 846.78C514.238 849.346 513.231 850.807 511.498 850.807ZM511.498 849.941C512.624 849.941 513.285 848.804 513.285 846.78C513.285 844.755 512.624 843.596 511.498 843.596C510.372 843.596 509.701 844.755 509.701 846.78C509.701 848.804 510.361 849.941 511.498 849.941ZM515.537 850.699L515.526 849.985L518.201 847.169C519.132 846.184 519.576 845.654 519.576 844.928C519.576 844.127 518.894 843.596 518.017 843.596C517.085 843.596 516.49 844.192 516.49 845.069H515.57C515.559 843.683 516.631 842.752 518.049 842.752C519.467 842.752 520.485 843.705 520.485 844.928C520.485 845.805 520.074 846.487 518.688 847.917L516.89 849.768V849.833H520.626V850.699H515.537ZM524.6 850.807C523.181 850.807 522.109 849.93 522.055 848.729H522.997C523.073 849.432 523.755 849.952 524.6 849.952C525.618 849.952 526.354 849.205 526.354 848.22C526.354 847.202 525.585 846.455 524.535 846.444C523.874 846.433 523.365 846.639 523.073 847.148H522.131L522.683 842.86H526.928V843.726H523.495L523.203 846.022H523.279C523.625 845.751 524.156 845.567 524.708 845.567C526.202 845.567 527.307 846.671 527.307 848.198C527.307 849.714 526.159 850.807 524.6 850.807ZM531.464 842.492L528.931 851.879H528.086L530.609 842.492H531.464ZM535.07 850.807C533.511 850.807 532.396 849.974 532.342 848.729H533.327C533.381 849.476 534.128 849.941 535.059 849.941C536.088 849.941 536.846 849.378 536.846 848.566C536.846 847.711 536.164 847.104 534.94 847.104H534.301V846.249H534.94C535.893 846.249 536.553 845.719 536.553 844.906C536.553 844.127 535.98 843.596 535.092 843.596C534.258 843.596 533.489 844.062 533.446 844.831H532.504C532.558 843.585 533.706 842.752 535.103 842.752C536.597 842.752 537.506 843.726 537.495 844.852C537.506 845.74 536.987 846.401 536.164 846.628V846.682C537.181 846.845 537.809 847.57 537.799 848.566C537.809 849.855 536.629 850.807 535.07 850.807ZM542.011 842.492L539.477 851.879H538.632L541.155 842.492H542.011ZM542.714 849.097V848.295L546.244 842.86H547.446V848.241H548.54V849.097H547.446V850.699H546.515V849.097H542.714ZM543.765 848.241H546.515V844.094H546.417L543.765 848.176V848.241Z" fill="#29292C"/>
<path d="M582.243 841.961V845.134H583.694V845.848H582.243V849.173H581.398V841.961H582.243ZM580.478 843.142V843.834H574.739V843.142H577.186V841.961H578.031V843.142H580.478ZM577.608 844.365C578.984 844.365 579.915 845.069 579.926 846.162C579.915 847.245 578.984 847.938 577.608 847.938C576.222 847.938 575.28 847.245 575.291 846.162C575.28 845.069 576.222 844.365 577.608 844.365ZM577.608 845.036C576.699 845.036 576.093 845.48 576.103 846.162C576.093 846.845 576.699 847.278 577.608 847.267C578.507 847.278 579.113 846.845 579.124 846.162C579.113 845.48 578.507 845.036 577.608 845.036ZM582.687 850.656V851.371H576.222V848.599H577.056V850.656H582.687ZM591.771 841.95V846.054H593.308V846.769H591.771V851.576H590.916V841.95H591.771ZM584.181 849.01C584.966 849.01 585.881 849.01 586.834 848.978V847.906C585.713 847.781 584.982 847.126 584.993 846.173C584.982 845.091 585.902 844.387 587.267 844.387C588.609 844.387 589.54 845.091 589.551 846.173C589.54 847.126 588.799 847.781 587.689 847.917V848.945C588.588 848.902 589.492 848.831 590.331 848.707L590.385 849.357C588.284 849.714 586.011 849.736 584.322 849.736L584.181 849.01ZM590.158 843.131V843.824H584.354V843.131H586.834V841.972H587.689V843.131H590.158ZM587.267 845.047C586.379 845.047 585.783 845.502 585.783 846.173C585.783 846.845 586.379 847.278 587.267 847.267C588.144 847.278 588.739 846.845 588.739 846.173C588.739 845.502 588.144 845.047 587.267 845.047ZM604.342 845.556V846.238H597.878V842.524H604.212V843.228H598.744V845.556H604.342ZM605.468 847.516V848.209H601.451V851.544H600.617V848.209H596.654V847.516H605.468ZM609.485 843.77C609.474 845.091 610.481 846.314 611.9 846.812L611.466 847.494C610.373 847.099 609.523 846.282 609.095 845.253C608.689 846.406 607.818 847.294 606.681 847.732L606.215 847.05C607.677 846.531 608.64 845.231 608.651 843.737V842.546H609.485V843.77ZM613.773 841.95V844.906H615.224V845.632H613.773V849.064H612.928V841.95H613.773ZM614.217 850.656V851.371H607.763V848.382H608.63V850.656H614.217ZM627.426 849.638V850.342H618.613V849.638H622.576V847.559H619.652V842.633H620.508V844.376H625.51V842.633H626.344V847.559H623.409V849.638H627.426ZM620.508 846.866H625.51V845.069H620.508V846.866ZM636.164 841.95V851.598H635.32V846.368H633.447V845.654H635.32V841.95H636.164ZM632.862 842.849V846.217H629.408V848.555C631.064 848.555 632.266 848.507 633.674 848.241L633.739 848.956C632.288 849.216 631.043 849.27 629.3 849.281H628.563V845.513H632.039V843.553H628.531V842.849H632.862ZM648.085 841.95V844.127H649.536V844.841H648.085V846.855H647.241V841.95H648.085ZM645.465 842.427C645.465 844.852 643.711 846.433 640.907 847.104L640.571 846.39C642.969 845.848 644.388 844.652 644.534 843.131H641.004V842.427H645.465ZM648.085 847.289V849.671H642.802V850.786H648.443V851.49H641.968V849.01H647.241V847.981H641.946V847.289H648.085ZM656.152 844.538C656.152 846.238 657.278 847.981 658.642 848.653L658.123 849.335C657.062 848.777 656.174 847.64 655.751 846.303C655.318 847.727 654.409 848.94 653.326 849.519L652.785 848.837C654.192 848.144 655.308 846.292 655.318 844.538V842.784H656.152V844.538ZM660.375 841.95V845.859H661.988V846.596H660.375V851.576H659.53V841.95H660.375ZM670.033 841.961V844.43H671.495V845.155H670.033V847.7H669.189V841.961H670.033ZM670.033 848.176V851.446H663.937V848.176H670.033ZM664.771 848.837V850.753H669.21V848.837H664.771ZM667.283 842.481V845.112H663.775V846.476C665.486 846.476 666.725 846.428 668.225 846.184L668.312 846.866C666.763 847.137 665.475 847.191 663.688 847.191H662.941V844.452H666.449V843.185H662.919V842.481H667.283ZM672.751 847.483C673.097 847.083 673.53 846.866 674.007 846.866C674.83 846.866 675.577 847.494 676.367 847.494C676.855 847.494 677.277 847.256 677.602 846.812V847.711C677.244 848.122 676.822 848.328 676.346 848.328C675.523 848.328 674.776 847.7 673.974 847.7C673.498 847.7 673.076 847.938 672.751 848.382V847.483ZM679.702 847.483C680.049 847.083 680.482 846.866 680.958 846.866C681.781 846.866 682.528 847.494 683.319 847.494C683.806 847.494 684.228 847.256 684.553 846.812V847.711C684.196 848.122 683.773 848.328 683.297 848.328C682.474 848.328 681.727 847.7 680.926 847.7C680.449 847.7 680.027 847.938 679.702 848.382V847.483Z" fill="#29292C"/>
<rect x="879.743" y="833.54" width="47.7111" height="27.3194" rx="4.92778" fill="#DBFFD9"/>
<path d="M897.808 849.679V850.439H889.916V849.679H893.39V847.687H890.82V843.587H896.865V847.687H894.295V849.679H897.808ZM891.706 844.318V846.965H895.97V844.318H891.706ZM901.629 844.27C901.629 845.338 902.466 846.339 903.794 846.724L903.332 847.436C902.327 847.133 901.566 846.474 901.176 845.627C900.787 846.532 900.017 847.249 898.982 847.59L898.52 846.869C899.858 846.455 900.695 845.406 900.705 844.27V844.174H898.77V843.433H903.525V844.174H901.629V844.27ZM905.585 842.894V847.562H904.67V842.894H905.585ZM900.84 847.966V848.928H904.68V847.966H905.585V851.411H899.945V847.966H900.84ZM900.84 850.67H904.68V849.65H900.84V850.67ZM917.221 846.888V847.629H913.737V848.457C915.32 848.543 916.258 849.077 916.258 849.977C916.258 850.959 915.142 851.508 913.284 851.498C911.407 851.508 910.291 850.959 910.291 849.977C910.291 849.077 911.229 848.543 912.832 848.457V847.629H909.357V846.888H917.221ZM913.284 849.15C911.966 849.15 911.215 849.448 911.215 849.977C911.215 850.497 911.966 850.805 913.284 850.795C914.584 850.805 915.344 850.497 915.344 849.977C915.344 849.448 914.584 849.15 913.284 849.15ZM916.518 843.288V844.02H913.9C914.03 844.852 915.243 845.56 916.816 845.714L916.489 846.436C914.997 846.262 913.761 845.632 913.294 844.713C912.813 845.632 911.581 846.262 910.089 846.436L909.771 845.714C911.321 845.56 912.538 844.852 912.668 844.02H910.079V843.288H916.518Z" fill="#0BC201"/>
<path d="M965.369 842.2C967.426 842.21 968.758 842.947 968.758 844.127C968.758 845.307 967.426 846.033 965.369 846.033C963.312 846.033 961.969 845.307 961.969 844.127C961.969 842.947 963.312 842.21 965.369 842.2ZM965.369 842.892C963.875 842.892 962.868 843.369 962.879 844.127C962.868 844.885 963.875 845.35 965.369 845.35C966.863 845.35 967.859 844.885 967.859 844.127C967.859 843.369 966.863 842.892 965.369 842.892ZM969.765 846.78V847.483H967.513V849.487H966.668V847.483H964.893V849.487H964.048V847.483H960.984V846.78H969.765ZM968.855 850.656V851.371H962.066V848.674H962.922V850.656H968.855ZM973.847 844.029C973.847 845.21 974.821 846.271 976.24 846.682L975.839 847.364C974.729 847.018 973.874 846.298 973.446 845.372C973.029 846.422 972.142 847.224 971.01 847.613L970.577 846.942C972.017 846.498 973.013 845.35 973.013 844.029V843.834H970.837V843.131H973.013V841.907H973.869V843.131H976.023V843.834H973.847V844.029ZM978.091 841.95V844.463H979.542V845.166H978.091V847.862H977.247V841.95H978.091ZM975.006 848.101C976.987 848.101 978.178 848.729 978.178 849.822C978.178 850.927 976.987 851.544 975.006 851.544C973.013 851.544 971.811 850.927 971.811 849.822C971.811 848.729 973.013 848.101 975.006 848.101ZM975.006 848.772C973.544 848.772 972.656 849.151 972.667 849.822C972.656 850.493 973.544 850.883 975.006 850.883C976.467 850.883 977.355 850.493 977.355 849.822C977.355 849.151 976.467 848.772 975.006 848.772ZM988.129 841.961V849.302H987.273V847.234H985.606V846.541H987.273V845.231H985.606V844.527H987.273V841.961H988.129ZM985.606 843.142V843.834H980.159V843.142H982.498V841.95H983.343V843.142H985.606ZM982.91 844.365C984.198 844.365 985.108 845.101 985.108 846.206C985.108 847.299 984.198 848.046 982.91 848.046C981.621 848.046 980.723 847.299 980.733 846.206C980.723 845.101 981.621 844.365 982.91 844.365ZM982.91 845.036C982.087 845.047 981.524 845.513 981.524 846.206C981.524 846.899 982.087 847.364 982.91 847.364C983.733 847.364 984.296 846.899 984.306 846.206C984.296 845.513 983.733 845.047 982.91 845.036ZM988.345 850.656V851.371H981.903V848.653H982.758V850.656H988.345Z" fill="#6F7176"/>
<path d="M1017.78 850.699L1017.77 849.985L1020.44 847.169C1021.37 846.184 1021.82 845.654 1021.82 844.928C1021.82 844.127 1021.13 843.596 1020.26 843.596C1019.33 843.596 1018.73 844.192 1018.73 845.069H1017.81C1017.8 843.683 1018.87 842.752 1020.29 842.752C1021.71 842.752 1022.72 843.705 1022.72 844.928C1022.72 845.805 1022.31 846.487 1020.93 847.917L1019.13 849.768V849.833H1022.87V850.699H1017.78ZM1026.85 850.807C1025.11 850.807 1024.11 849.346 1024.11 846.78C1024.11 844.235 1025.13 842.752 1026.85 842.752C1028.57 842.752 1029.59 844.235 1029.59 846.78C1029.59 849.346 1028.58 850.807 1026.85 850.807ZM1026.85 849.941C1027.98 849.941 1028.64 848.804 1028.64 846.78C1028.64 844.755 1027.98 843.596 1026.85 843.596C1025.72 843.596 1025.05 844.755 1025.05 846.78C1025.05 848.804 1025.71 849.941 1026.85 849.941ZM1030.89 850.699L1030.88 849.985L1033.55 847.169C1034.48 846.184 1034.93 845.654 1034.93 844.928C1034.93 844.127 1034.25 843.596 1033.37 843.596C1032.44 843.596 1031.84 844.192 1031.84 845.069H1030.92C1030.91 843.683 1031.98 842.752 1033.4 842.752C1034.82 842.752 1035.84 843.705 1035.84 844.928C1035.84 845.805 1035.43 846.487 1034.04 847.917L1032.24 849.768V849.833H1035.98V850.699H1030.89ZM1039.95 850.807C1038.53 850.807 1037.46 849.93 1037.41 848.729H1038.35C1038.43 849.432 1039.11 849.952 1039.95 849.952C1040.97 849.952 1041.71 849.205 1041.71 848.22C1041.71 847.202 1040.94 846.455 1039.89 846.444C1039.23 846.433 1038.72 846.639 1038.43 847.148H1037.48L1038.04 842.86H1042.28V843.726H1038.85L1038.55 846.022H1038.63C1038.98 845.751 1039.51 845.567 1040.06 845.567C1041.55 845.567 1042.66 846.671 1042.66 848.198C1042.66 849.714 1041.51 850.807 1039.95 850.807ZM1046.82 842.492L1044.28 851.879H1043.44L1045.96 842.492H1046.82ZM1050.42 850.807C1048.86 850.807 1047.75 849.974 1047.69 848.729H1048.68C1048.73 849.476 1049.48 849.941 1050.41 849.941C1051.44 849.941 1052.2 849.378 1052.2 848.566C1052.2 847.711 1051.52 847.104 1050.29 847.104H1049.65V846.249H1050.29C1051.24 846.249 1051.91 845.719 1051.91 844.906C1051.91 844.127 1051.33 843.596 1050.44 843.596C1049.61 843.596 1048.84 844.062 1048.8 844.831H1047.86C1047.91 843.585 1049.06 842.752 1050.45 842.752C1051.95 842.752 1052.86 843.726 1052.85 844.852C1052.86 845.74 1052.34 846.401 1051.52 846.628V846.682C1052.53 846.845 1053.16 847.57 1053.15 848.566C1053.16 849.855 1051.98 850.807 1050.42 850.807ZM1057.36 842.492L1054.83 851.879H1053.98L1056.51 842.492H1057.36ZM1058.07 849.097V848.295L1061.6 842.86H1062.8V848.241H1063.89V849.097H1062.8V850.699H1061.87V849.097H1058.07ZM1059.12 848.241H1061.87V844.094H1061.77L1059.12 848.176V848.241Z" fill="#6F7176"/>
<path d="M377.858 905.013C376.114 905.013 375.118 903.551 375.118 900.985C375.118 898.441 376.136 896.957 377.858 896.957C379.579 896.957 380.597 898.441 380.597 900.985C380.597 903.551 379.59 905.013 377.858 905.013ZM377.858 904.147C378.984 904.147 379.644 903.01 379.644 900.985C379.644 898.96 378.984 897.802 377.858 897.802C376.732 897.802 376.06 898.96 376.06 900.985C376.06 903.01 376.721 904.147 377.858 904.147ZM381.896 904.905L381.885 904.19L384.56 901.375C385.491 900.39 385.935 899.859 385.935 899.134C385.935 898.332 385.253 897.802 384.376 897.802C383.445 897.802 382.849 898.397 382.849 899.274H381.929C381.918 897.888 382.99 896.957 384.408 896.957C385.827 896.957 386.845 897.91 386.845 899.134C386.845 900.011 386.433 900.693 385.047 902.122L383.25 903.974V904.039H386.985V904.905H381.896Z" fill="#6F7176"/>
<path d="M426.775 897.52C426.775 898.82 427.662 900.054 429.135 900.541L428.572 901.353C427.527 900.969 426.737 900.206 426.309 899.242C425.887 900.336 425.048 901.196 423.894 901.624L423.342 900.812C424.869 900.271 425.757 898.982 425.757 897.542V896.622H426.775V897.52ZM431.03 896.124V898.473H432.437V899.318H431.03V901.776H430.001V896.124H431.03ZM431.03 902.209V905.706H424.836V902.209H431.03ZM425.843 903.032V904.872H430.012V903.032H425.843ZM436.433 897.574C436.433 898.939 437.31 900.151 438.782 900.628L438.219 901.429C437.153 901.045 436.368 900.298 435.946 899.329C435.523 900.438 434.679 901.299 433.509 901.721L432.957 900.899C434.505 900.368 435.404 899.08 435.415 897.618V896.665H436.433V897.574ZM441.078 896.124V901.851H440.049V898.939H438.003V898.094H440.049V896.124H441.078ZM437.83 902.122C439.865 902.122 441.11 902.793 441.11 903.974C441.11 905.143 439.865 905.814 437.83 905.803C435.794 905.814 434.538 905.143 434.549 903.974C434.538 902.793 435.794 902.122 437.83 902.122ZM437.83 902.923C436.411 902.923 435.567 903.302 435.567 903.974C435.567 904.623 436.411 904.991 437.83 904.991C439.248 904.991 440.093 904.623 440.093 903.974C440.093 903.302 439.248 902.923 437.83 902.923ZM450.671 899.025L448.538 904.905H447.293L445.16 899.025H446.405L447.888 903.541H447.943L449.426 899.025H450.671ZM454.916 900.628C454.807 900.162 454.439 899.859 453.8 899.859C453.14 899.859 452.663 900.206 452.674 900.65C452.663 900.996 452.945 901.245 453.595 901.397L454.526 901.613C455.609 901.851 456.128 902.371 456.139 903.205C456.128 904.266 455.24 905.024 453.735 905.024C452.328 905.024 451.483 904.396 451.342 903.302H452.523C452.62 903.833 453.032 904.093 453.724 904.093C454.472 904.093 454.948 903.79 454.959 903.291C454.948 902.913 454.667 902.663 454.049 902.523L453.129 902.328C452.068 902.09 451.516 901.527 451.516 900.714C451.516 899.664 452.425 898.95 453.789 898.95C455.1 898.95 455.912 899.621 456.031 900.628H454.916ZM467.4 899.697V900.509H460.817V896.676H467.281V897.51H461.856V899.697H467.4ZM468.493 901.689V902.523H464.53V905.803H463.524V902.523H459.615V901.689H468.493ZM472.575 897.899C472.575 899.199 473.485 900.422 474.957 900.92L474.427 901.732C473.339 901.348 472.532 900.574 472.099 899.599C471.677 900.687 470.843 901.537 469.706 901.96L469.132 901.148C470.67 900.617 471.558 899.318 471.558 897.867V896.719H472.575V897.899ZM476.831 896.113V899.036H478.238V899.913H476.831V903.27H475.802V896.113H476.831ZM477.253 904.786V905.619H470.691V902.577H471.742V904.786H477.253Z" fill="#29292C"/>
<path d="M504.425 904.905L504.414 904.19L507.088 901.375C508.02 900.39 508.463 899.859 508.463 899.134C508.463 898.332 507.781 897.802 506.904 897.802C505.973 897.802 505.378 898.397 505.378 899.274H504.457C504.446 897.888 505.518 896.957 506.937 896.957C508.355 896.957 509.373 897.91 509.373 899.134C509.373 900.011 508.962 900.693 507.576 902.122L505.778 903.974V904.039H509.514V904.905H504.425ZM513.498 905.013C511.755 905.013 510.759 903.551 510.759 900.985C510.759 898.441 511.777 896.957 513.498 896.957C515.22 896.957 516.238 898.441 516.238 900.985C516.238 903.551 515.231 905.013 513.498 905.013ZM513.498 904.147C514.624 904.147 515.285 903.01 515.285 900.985C515.285 898.96 514.624 897.802 513.498 897.802C512.372 897.802 511.701 898.96 511.701 900.985C511.701 903.01 512.361 904.147 513.498 904.147ZM517.537 904.905L517.526 904.19L520.201 901.375C521.132 900.39 521.576 899.859 521.576 899.134C521.576 898.332 520.894 897.802 520.017 897.802C519.085 897.802 518.49 898.397 518.49 899.274H517.57C517.559 897.888 518.631 896.957 520.049 896.957C521.467 896.957 522.485 897.91 522.485 899.134C522.485 900.011 522.074 900.693 520.688 902.122L518.89 903.974V904.039H522.626V904.905H517.537ZM526.6 905.013C525.181 905.013 524.109 904.136 524.055 902.934H524.997C525.073 903.638 525.755 904.158 526.6 904.158C527.618 904.158 528.354 903.411 528.354 902.425C528.354 901.407 527.585 900.66 526.535 900.65C525.874 900.639 525.365 900.844 525.073 901.353H524.131L524.683 897.066H528.928V897.932H525.495L525.203 900.227H525.279C525.625 899.957 526.156 899.772 526.708 899.772C528.202 899.772 529.307 900.877 529.307 902.404C529.307 903.919 528.159 905.013 526.6 905.013ZM533.464 896.697L530.931 906.085H530.086L532.609 896.697H533.464ZM537.07 905.013C535.511 905.013 534.396 904.179 534.342 902.934H535.327C535.381 903.681 536.128 904.147 537.059 904.147C538.088 904.147 538.846 903.584 538.846 902.772C538.846 901.916 538.164 901.31 536.94 901.31H536.301V900.455H536.94C537.893 900.455 538.553 899.924 538.553 899.112C538.553 898.332 537.98 897.802 537.092 897.802C536.258 897.802 535.489 898.267 535.446 899.036H534.504C534.558 897.791 535.706 896.957 537.103 896.957C538.597 896.957 539.506 897.932 539.495 899.058C539.506 899.946 538.987 900.606 538.164 900.834V900.888C539.181 901.05 539.809 901.776 539.799 902.772C539.809 904.06 538.629 905.013 537.07 905.013ZM544.011 896.697L541.477 906.085H540.632L543.155 896.697H544.011ZM547.681 897.066V904.905H546.696V898.083H546.653L544.747 899.35V898.365L546.696 897.066H547.681ZM552.543 897.066V904.905H551.557V898.083H551.514L549.608 899.35V898.365L551.557 897.066H552.543Z" fill="#29292C"/>
<path d="M576.974 897.904C576.964 899.236 577.96 900.47 579.378 900.946L578.902 901.618C577.851 901.222 577.018 900.427 576.595 899.409C576.189 900.567 575.312 901.461 574.159 901.899L573.704 901.228C575.166 900.686 576.13 899.398 576.141 897.925V896.962H576.974V897.904ZM581.262 896.464V898.867H582.713V899.582H581.262V902.105H580.418V896.464H581.262ZM581.262 902.549V905.96H575.188V902.549H581.262ZM576.022 903.242V905.267H580.418V903.242H576.022ZM586.633 897.98C586.622 899.355 587.596 900.567 589.015 901.044L588.538 901.704C587.477 901.304 586.644 900.524 586.232 899.506C585.815 900.659 584.933 901.558 583.774 901.997L583.309 901.304C584.792 900.784 585.777 899.506 585.788 898.012V897.016H586.633V897.98ZM591.299 896.464V902.17H590.444V899.236H588.3V898.532H590.444V896.464H591.299ZM588.105 902.451C590.108 902.451 591.332 903.112 591.332 904.27C591.332 905.418 590.108 906.068 588.105 906.068C586.102 906.068 584.879 905.418 584.879 904.27C584.879 903.112 586.102 902.451 588.105 902.451ZM588.105 903.123C586.633 903.123 585.712 903.556 585.723 904.27C585.712 904.963 586.633 905.386 588.105 905.386C589.578 905.386 590.487 904.963 590.487 904.27C590.487 903.556 589.578 903.123 588.105 903.123ZM603.621 896.464V906.111H602.766V896.464H603.621ZM598.5 897.211C599.929 897.222 600.958 898.521 600.958 900.567C600.958 902.614 599.929 903.913 598.5 903.913C597.06 903.913 596.042 902.614 596.042 900.567C596.042 898.521 597.06 897.222 598.5 897.211ZM598.5 897.969C597.536 897.98 596.865 898.997 596.865 900.567C596.865 902.137 597.536 903.155 598.5 903.155C599.463 903.155 600.135 902.137 600.135 900.567C600.135 898.997 599.463 897.98 598.5 897.969ZM613.247 896.474V903.599H612.392V899.896H610.118V901.953H605.754V897.113H606.599V898.824H609.284V897.113H610.118V899.181H612.392V896.474H613.247ZM613.464 905.169V905.884H607.021V902.895H607.877V905.169H613.464ZM606.599 901.249H609.284V899.495H606.599V901.249ZM619.711 897.828C619.7 899.116 621.422 900.21 623.1 900.459L622.786 901.13C621.281 900.876 619.819 900.075 619.235 898.911C618.65 900.075 617.183 900.876 615.705 901.13L615.369 900.459C617.037 900.21 618.758 899.116 618.758 897.828V897.763H615.672V897.07H622.786V897.763H619.711V897.828ZM623.62 901.953V902.657H619.635V906.089H618.802V902.657H614.85V901.953H623.62ZM635.195 896.474V902.256H634.339V900.957H631.784V900.253H634.339V898.954H631.881C631.248 900.502 629.759 901.623 627.702 902.235L627.345 901.563C629.673 900.871 631.118 899.571 631.297 897.904H627.832V897.189H632.217C632.217 897.568 632.174 897.931 632.098 898.272H634.339V896.474H635.195ZM632.044 902.354C633.993 902.354 635.249 903.047 635.249 904.195C635.249 905.353 633.993 906.046 632.044 906.046C630.073 906.046 628.828 905.353 628.828 904.195C628.828 903.047 630.073 902.354 632.044 902.354ZM632.044 903.036C630.593 903.025 629.662 903.469 629.662 904.195C629.662 904.92 630.593 905.353 632.044 905.353C633.473 905.353 634.393 904.92 634.404 904.195C634.393 903.469 633.473 903.025 632.044 903.036ZM644.755 896.464V906.089H643.9V896.464H644.755ZM641.908 897.514C641.897 900.286 640.608 902.733 637.382 904.281L636.916 903.588C639.52 902.354 640.847 900.508 641.042 898.207H637.36V897.514H641.908ZM656.687 896.464V898.716H658.138V899.42H656.687V901.618H655.843V896.464H656.687ZM654.1 897.146C654.089 899.55 652.389 901.152 649.552 901.802L649.195 901.109C651.647 900.573 653.017 899.355 653.158 897.839H649.606V897.146H654.1ZM656.731 902.051V902.7H651.447V903.653H656.623V904.303H651.447V905.299H656.958V905.96H650.592V902.051H656.731ZM666.681 896.464V906.111H665.826V896.464H666.681ZM661.56 897.211C662.989 897.222 664.018 898.521 664.018 900.567C664.018 902.614 662.989 903.913 661.56 903.913C660.12 903.913 659.102 902.614 659.102 900.567C659.102 898.521 660.12 897.222 661.56 897.211ZM661.56 897.969C660.596 897.98 659.925 898.997 659.925 900.567C659.925 902.137 660.596 903.155 661.56 903.155C662.524 903.155 663.195 902.137 663.195 900.567C663.195 898.997 662.524 897.98 661.56 897.969ZM679.924 904.151V904.855H671.11V904.151H675.073V902.072H672.149V897.146H673.005V898.889H678.007V897.146H678.841V902.072H675.907V904.151H679.924ZM673.005 901.379H678.007V899.582H673.005V901.379ZM688.662 896.464V906.111H687.817V900.881H685.944V900.167H687.817V896.464H688.662ZM685.359 897.362V900.73H681.905V903.069C683.562 903.069 684.764 903.02 686.171 902.755L686.236 903.469C684.785 903.729 683.54 903.783 681.797 903.794H681.061V900.026H684.536V898.066H681.028V897.362H685.359ZM700.507 896.464V900.383H702.066V901.098H700.507V906.089H699.662V896.464H700.507ZM698.017 897.503C698.017 900.232 696.739 902.711 693.599 904.26L693.122 903.588C695.613 902.348 696.966 900.497 697.161 898.218H693.566V897.503H698.017ZM710.577 896.464V901.455H709.743V896.464H710.577ZM710.587 901.942V904.249H705.184V905.288H710.934V905.981H704.351V903.588H709.743V902.625H704.329V901.942H710.587ZM706.051 897.481C706.04 898.846 707.079 900.048 708.509 900.513L708.086 901.174C706.96 900.789 706.062 899.983 705.628 898.943C705.195 900.064 704.291 900.946 703.149 901.358L702.705 900.686C704.156 900.178 705.184 898.9 705.184 897.481V896.745H706.051V897.481ZM723.808 901.563V902.256H719.888V904.14H719.044V902.256H714.994V901.563H723.808ZM722.823 905.169V905.884H716.12V903.253H716.965V905.169H722.823ZM717.019 896.778V898.012H721.783V896.778H722.628V900.621H716.175V896.778H717.019ZM717.019 899.929H721.783V898.662H717.019V899.929Z" fill="#29292C"/>
<rect x="872.832" y="887.745" width="56.7111" height="27.3194" rx="4.92778" fill="#EBF3FF"/>
<path d="M891.42 903.885V904.645H883.528V903.885H887.002V901.892H884.433V897.792H890.477V901.892H887.907V903.885H891.42ZM885.318 898.524V901.17H889.582V898.524H885.318ZM895.241 898.476C895.241 899.544 896.078 900.545 897.407 900.93L896.945 901.642C895.939 901.339 895.179 900.68 894.789 899.833C894.399 900.737 893.629 901.454 892.594 901.796L892.132 901.074C893.47 900.66 894.308 899.611 894.317 898.476V898.379H892.383V897.638H897.137V898.379H895.241V898.476ZM899.197 897.099V901.767H898.282V897.099H899.197ZM894.452 902.171V903.134H898.292V902.171H899.197V905.617H893.557V902.171H894.452ZM894.452 904.876H898.292V903.856H894.452V904.876ZM905.588 897.484C906.848 897.484 907.734 898.177 907.743 899.207C907.734 900.083 907.07 900.728 906.069 900.882V901.642C906.834 901.604 907.599 901.536 908.311 901.43L908.379 902.104C906.569 902.431 904.538 902.46 903.056 902.46L902.96 901.719C903.605 901.724 904.36 901.719 905.154 901.69V900.891C904.125 900.747 903.432 900.097 903.441 899.207C903.432 898.177 904.327 897.484 905.588 897.484ZM905.588 898.187C904.827 898.187 904.288 898.581 904.298 899.207C904.288 899.813 904.827 900.218 905.588 900.218C906.357 900.218 906.877 899.813 906.877 899.207C906.877 898.581 906.357 898.187 905.588 898.187ZM909.755 897.109V899.958H910.987V900.728H909.755V903.702H908.841V897.109H909.755ZM910.063 904.789V905.54H904.182V903.124H905.097V904.789H910.063ZM919.38 903.923V904.693H911.487V903.923H913.643V902.402H912.45V899.659H917.512V898.456H912.431V897.706H918.417V900.4H913.355V901.652H918.619V902.402H917.31V903.923H919.38ZM914.529 903.923H916.415V902.402H914.529V903.923Z" fill="#006AFE"/>
<path d="M965.369 896.405C967.426 896.416 968.758 897.152 968.758 898.332C968.758 899.513 967.426 900.238 965.369 900.238C963.312 900.238 961.969 899.513 961.969 898.332C961.969 897.152 963.312 896.416 965.369 896.405ZM965.369 897.098C963.875 897.098 962.868 897.574 962.879 898.332C962.868 899.09 963.875 899.556 965.369 899.556C966.863 899.556 967.859 899.09 967.859 898.332C967.859 897.574 966.863 897.098 965.369 897.098ZM969.765 900.985V901.689H967.513V903.692H966.668V901.689H964.893V903.692H964.048V901.689H960.984V900.985H969.765ZM968.855 904.861V905.576H962.066V902.88H962.922V904.861H968.855ZM973.847 898.235C973.847 899.415 974.821 900.476 976.24 900.888L975.839 901.57C974.729 901.223 973.874 900.503 973.446 899.578C973.029 900.628 972.142 901.429 971.01 901.819L970.577 901.148C972.017 900.704 973.013 899.556 973.013 898.235V898.04H970.837V897.336H973.013V896.113H973.869V897.336H976.023V898.04H973.847V898.235ZM978.091 896.156V898.668H979.542V899.372H978.091V902.068H977.247V896.156H978.091ZM975.006 902.306C976.987 902.306 978.178 902.934 978.178 904.028C978.178 905.132 976.987 905.749 975.006 905.749C973.013 905.749 971.811 905.132 971.811 904.028C971.811 902.934 973.013 902.306 975.006 902.306ZM975.006 902.977C973.544 902.977 972.656 903.356 972.667 904.028C972.656 904.699 973.544 905.089 975.006 905.089C976.467 905.089 977.355 904.699 977.355 904.028C977.355 903.356 976.467 902.977 975.006 902.977ZM988.129 896.167V903.508H987.273V901.44H985.606V900.747H987.273V899.437H985.606V898.733H987.273V896.167H988.129ZM985.606 897.347V898.04H980.159V897.347H982.498V896.156H983.343V897.347H985.606ZM982.91 898.571C984.198 898.571 985.108 899.307 985.108 900.411C985.108 901.505 984.198 902.252 982.91 902.252C981.621 902.252 980.723 901.505 980.733 900.411C980.723 899.307 981.621 898.571 982.91 898.571ZM982.91 899.242C982.087 899.253 981.524 899.718 981.524 900.411C981.524 901.104 982.087 901.57 982.91 901.57C983.733 901.57 984.296 901.104 984.306 900.411C984.296 899.718 983.733 899.253 982.91 899.242ZM988.345 904.861V905.576H981.903V902.858H982.758V904.861H988.345Z" fill="#6F7176"/>
<path d="M1017.78 904.905L1017.77 904.19L1020.44 901.375C1021.37 900.39 1021.82 899.859 1021.82 899.134C1021.82 898.332 1021.13 897.802 1020.26 897.802C1019.33 897.802 1018.73 898.397 1018.73 899.274H1017.81C1017.8 897.888 1018.87 896.957 1020.29 896.957C1021.71 896.957 1022.72 897.91 1022.72 899.134C1022.72 900.011 1022.31 900.693 1020.93 902.122L1019.13 903.974V904.039H1022.87V904.905H1017.78ZM1026.85 905.013C1025.11 905.013 1024.11 903.551 1024.11 900.985C1024.11 898.441 1025.13 896.957 1026.85 896.957C1028.57 896.957 1029.59 898.441 1029.59 900.985C1029.59 903.551 1028.58 905.013 1026.85 905.013ZM1026.85 904.147C1027.98 904.147 1028.64 903.01 1028.64 900.985C1028.64 898.96 1027.98 897.802 1026.85 897.802C1025.72 897.802 1025.05 898.96 1025.05 900.985C1025.05 903.01 1025.71 904.147 1026.85 904.147ZM1030.89 904.905L1030.88 904.19L1033.55 901.375C1034.48 900.39 1034.93 899.859 1034.93 899.134C1034.93 898.332 1034.25 897.802 1033.37 897.802C1032.44 897.802 1031.84 898.397 1031.84 899.274H1030.92C1030.91 897.888 1031.98 896.957 1033.4 896.957C1034.82 896.957 1035.84 897.91 1035.84 899.134C1035.84 900.011 1035.43 900.693 1034.04 902.122L1032.24 903.974V904.039H1035.98V904.905H1030.89ZM1039.95 905.013C1038.53 905.013 1037.46 904.136 1037.41 902.934H1038.35C1038.43 903.638 1039.11 904.158 1039.95 904.158C1040.97 904.158 1041.71 903.411 1041.71 902.425C1041.71 901.407 1040.94 900.66 1039.89 900.65C1039.23 900.639 1038.72 900.844 1038.43 901.353H1037.48L1038.04 897.066H1042.28V897.932H1038.85L1038.55 900.227H1038.63C1038.98 899.957 1039.51 899.772 1040.06 899.772C1041.55 899.772 1042.66 900.877 1042.66 902.404C1042.66 903.919 1041.51 905.013 1039.95 905.013ZM1046.82 896.697L1044.28 906.085H1043.44L1045.96 896.697H1046.82ZM1050.42 905.013C1048.86 905.013 1047.75 904.179 1047.69 902.934H1048.68C1048.73 903.681 1049.48 904.147 1050.41 904.147C1051.44 904.147 1052.2 903.584 1052.2 902.772C1052.2 901.916 1051.52 901.31 1050.29 901.31H1049.65V900.455H1050.29C1051.24 900.455 1051.91 899.924 1051.91 899.112C1051.91 898.332 1051.33 897.802 1050.44 897.802C1049.61 897.802 1048.84 898.267 1048.8 899.036H1047.86C1047.91 897.791 1049.06 896.957 1050.45 896.957C1051.95 896.957 1052.86 897.932 1052.85 899.058C1052.86 899.946 1052.34 900.606 1051.52 900.834V900.888C1052.53 901.05 1053.16 901.776 1053.15 902.772C1053.16 904.06 1051.98 905.013 1050.42 905.013ZM1057.36 896.697L1054.83 906.085H1053.98L1056.51 896.697H1057.36ZM1058.07 903.302V902.501L1061.6 897.066H1062.8V902.447H1063.89V903.302H1062.8V904.905H1061.87V903.302H1058.07ZM1059.12 902.447H1061.87V898.3H1061.77L1059.12 902.382V902.447Z" fill="#6F7176"/>
<path d="M650.511 425.384H789.105V435.239C789.105 440.002 785.244 443.863 780.481 443.863H659.135C654.372 443.863 650.511 440.002 650.511 435.239V425.384Z" fill="#29292C"/>
</g>
<path d="M264 440C264 425.641 275.641 414 290 414H1149C1163.36 414 1175 425.641 1175 440H1151C1151 438.895 1150.1 438 1149 438H290C288.895 438 288 438.895 288 440H264ZM288 440M1163 909H276H1163M264 909V440C264 425.641 275.641 414 290 414V438C288.895 438 288 438.895 288 440V909H264ZM1149 414C1163.36 414 1175 425.641 1175 440V909H1151V440C1151 438.895 1150.1 438 1149 438V414Z" fill="#29292C" mask="url(#path-5-outside-1_2377_17407)"/>
<path d="M1370.05 346.121C1372.34 336.018 1366.01 325.973 1355.91 323.683C1345.8 321.394 1335.76 327.728 1333.47 337.83C1331.18 347.933 1337.51 357.978 1347.62 360.268C1357.72 362.557 1367.76 356.223 1370.05 346.121Z" fill="#F2591D"/>
<path d="M1078.96 500.97C1078.96 500.97 1163.99 449.522 1242.28 455.692C1308.13 460.876 1331.6 492.512 1320.36 512.89C1307.45 536.308 1241.35 529.835 1212.81 466.713C1184.17 403.348 1239.62 316.555 1327.28 336.421" stroke="url(#paint3_linear_2377_17407)" stroke-width="29.0812" stroke-miterlimit="10"/>
<defs>
<linearGradient id="paint0_linear_2377_17407" x1="116.184" y1="681.099" x2="308.796" y2="689.987" gradientUnits="userSpaceOnUse">
<stop stop-color="#009DFE"/>
<stop offset="0.272383" stop-color="#0ABF00"/>
<stop offset="0.629808" stop-color="#FFAE00"/>
<stop offset="0.937655" stop-color="#F2721D"/>
</linearGradient>
<linearGradient id="paint1_linear_2377_17407" x1="1275.65" y1="855.459" x2="1138.28" y2="763.321" gradientUnits="userSpaceOnUse">
<stop stop-color="#009DFE"/>
<stop offset="0.272383" stop-color="#0ABF00"/>
<stop offset="0.629808" stop-color="#FFAE00"/>
<stop offset="0.937655" stop-color="#F2721D"/>
</linearGradient>
<linearGradient id="paint2_linear_2377_17407" x1="350.088" y1="443.863" x2="361.422" y2="456.931" gradientUnits="userSpaceOnUse">
<stop stop-color="#009DFE"/>
<stop offset="0.272383" stop-color="#0ABF00"/>
<stop offset="0.629808" stop-color="#FFAE00"/>
<stop offset="0.937655" stop-color="#F2721D"/>
</linearGradient>
<linearGradient id="paint3_linear_2377_17407" x1="1079.66" y1="497.889" x2="1360.64" y2="347.426" gradientUnits="userSpaceOnUse">
<stop stop-color="#009DFE"/>
<stop offset="0.272383" stop-color="#0ABF00"/>
<stop offset="0.629808" stop-color="#FFAE00"/>
<stop offset="0.937655" stop-color="#F2721D"/>
</linearGradient>
<clipPath id="clip0_2377_17407">
<path d="M276 440C276 432.268 282.268 426 290 426H1149C1156.73 426 1163 432.268 1163 440V909H276V440Z" fill="white"/>
</clipPath>
</defs>
</svg>
