<svg width="28" height="28" viewBox="0 0 28 28" fill="none" xmlns="http://www.w3.org/2000/svg">
<path d="M23.917 9.91602V22.166C23.917 23.1324 23.1333 23.9158 22.167 23.916H5.83301C4.86666 23.9158 4.08301 23.1324 4.08301 22.166V9.91602H23.917Z" stroke="#95969B" stroke-width="1.16667"/>
<path d="M23.917 9.91699V8.16699C23.917 7.2006 23.1333 6.41717 22.167 6.41699H5.83301C4.86666 6.41717 4.08301 7.2006 4.08301 8.16699V9.91699H23.917Z" stroke="#95969B" stroke-width="1.16667"/>
<rect x="7" y="11.6665" width="2.33333" height="2.33333" rx="0.933333" fill="#95969B"/>
<rect x="7" y="15.1665" width="2.33333" height="2.33333" rx="0.933333" fill="#95969B"/>
<rect x="12.834" y="11.6665" width="2.33333" height="2.33333" rx="0.933333" fill="#95969B"/>
<rect x="12.834" y="15.1665" width="2.33333" height="2.33333" rx="0.933333" fill="#95969B"/>
<rect x="18.666" y="11.6665" width="2.33333" height="2.33333" rx="0.933333" fill="#95969B"/>
<rect x="18.666" y="15.1665" width="2.33333" height="2.33333" rx="0.933333" fill="#95969B"/>
<path d="M14 4.6665V6.99984" stroke="#95969B" stroke-width="1.63333" stroke-linecap="round"/>
<path d="M21 4.6665V6.99984" stroke="#95969B" stroke-width="1.63333" stroke-linecap="round"/>
<path d="M7 4.6665V6.99984" stroke="#95969B" stroke-width="1.63333" stroke-linecap="round"/>
</svg>
