<svg width="28" height="28" viewBox="0 0 28 28" fill="none" xmlns="http://www.w3.org/2000/svg">
<circle cx="17.6797" cy="10.7832" r="2.78321" fill="#53D24C"/>
<circle cx="10.4824" cy="10.7832" r="2.78321" fill="#0ABF00"/>
<path d="M15.9642 19.841C15.9642 19.121 15.8224 18.4082 15.5469 17.7431C15.2714 17.0779 14.8675 16.4736 14.3585 15.9645C13.8494 15.4555 13.2451 15.0517 12.58 14.7762C11.9149 14.5007 11.202 14.3589 10.4821 14.3589C9.76216 14.3589 9.04929 14.5007 8.38418 14.7762C7.71906 15.0517 7.11472 15.4555 6.60566 15.9646C6.09661 16.4736 5.6928 17.0779 5.4173 17.7431C5.1418 18.4082 5 19.121 5 19.841L15.9642 19.841Z" fill="#0ABF00"/>
<path d="M15.958 19.5767C15.9623 19.6646 15.9648 19.7531 15.9648 19.8413C15.9648 19.753 15.9623 19.6647 15.958 19.5767ZM17.6807 14.3589C18.4004 14.3589 19.1134 14.5005 19.7783 14.7759C20.4434 15.0514 21.0486 15.4553 21.5576 15.9644C22.0667 16.4734 22.4706 17.0785 22.7461 17.7437C23.0214 18.4086 23.1631 19.1216 23.1631 19.8413H16.7578C16.7578 19.0174 16.5955 18.2011 16.2803 17.4399C15.9649 16.6787 15.5026 15.9865 14.9199 15.4038C14.8579 15.3417 14.794 15.2815 14.7295 15.2222C14.9999 15.0494 15.2852 14.8992 15.583 14.7759C16.248 14.5005 16.9609 14.3589 17.6807 14.3589ZM15.9092 19.0688C15.9141 19.1033 15.9176 19.1378 15.9219 19.1724C15.9176 19.1378 15.9141 19.1033 15.9092 19.0688ZM15.8643 18.8003C15.8735 18.848 15.8807 18.8959 15.8887 18.9438C15.8807 18.8959 15.8735 18.848 15.8643 18.8003ZM15.8115 18.5571C15.8163 18.5769 15.8206 18.5968 15.8252 18.6167C15.8206 18.5968 15.8163 18.5769 15.8115 18.5571ZM15.7422 18.3003C15.7534 18.3386 15.764 18.377 15.7744 18.4155C15.764 18.377 15.7534 18.3386 15.7422 18.3003ZM15.6641 18.0532C15.6786 18.0953 15.6916 18.1378 15.7051 18.1802C15.6916 18.1378 15.6786 18.0953 15.6641 18.0532ZM15.5977 17.8687C15.6054 17.8886 15.6117 17.9091 15.6191 17.9292C15.596 17.8671 15.5732 17.8049 15.5479 17.7437L15.5977 17.8687ZM15.3242 17.27C15.3447 17.3086 15.3632 17.3481 15.3828 17.3872C15.3632 17.3481 15.3447 17.3086 15.3242 17.27ZM15.0615 16.8276C15.082 16.8588 15.1012 16.8908 15.1211 16.9224C15.1012 16.8908 15.082 16.8588 15.0615 16.8276ZM14.9102 16.6108C14.9351 16.645 14.9593 16.6796 14.9834 16.7144C14.9593 16.6796 14.9351 16.645 14.9102 16.6108ZM14.7529 16.4048C14.7816 16.4404 14.8092 16.4769 14.8369 16.5132C14.8092 16.4769 14.7816 16.4404 14.7529 16.4048ZM14.5908 16.2124C14.6156 16.2404 14.6399 16.2688 14.6641 16.2974C14.6399 16.2688 14.6156 16.2404 14.5908 16.2124ZM14.4531 16.061C14.4661 16.0747 14.4784 16.0893 14.4912 16.103C14.4477 16.0564 14.4045 16.0095 14.3594 15.9644L14.4531 16.061ZM15.9395 19.3247C15.9462 19.3955 15.9511 19.4665 15.9551 19.5376C15.9511 19.4665 15.9462 19.3955 15.9395 19.3247Z" fill="#53D24C"/>
</svg>
