<svg width="28" height="28" viewBox="0 0 28 28" fill="none" xmlns="http://www.w3.org/2000/svg">
<path d="M5.16159 12.6305C4.90306 11.627 5.50824 10.6085 6.51313 10.3552L18.1273 7.4275L18.4041 8.50078C18.4692 8.75125 18.7247 8.90337 18.9757 8.8401C19.2265 8.77667 19.3774 8.52217 19.3132 8.27162L19.0364 7.19834L21.9691 6.45908C22.9739 6.20599 23.9976 6.81381 24.2566 7.81707L25.5326 12.7646C25.7912 13.768 25.1867 14.7862 24.182 15.0396L21.2493 15.7789L20.973 14.7075C20.9083 14.4567 20.6523 14.3042 20.4012 14.3673C20.1499 14.4306 19.9992 14.6858 20.0639 14.9367L20.3402 16.0081L8.72602 18.9358C7.72108 19.1891 6.69649 18.5815 6.43753 17.578L5.16159 12.6305ZM21.2493 15.7789L21.2495 15.7799L20.3405 16.009L20.3402 16.0081L21.2493 15.7789ZM19.5106 12.7911C19.5755 13.0417 19.831 13.1937 20.0822 13.1304C20.3331 13.0669 20.4841 12.8126 20.4196 12.5619L19.8663 10.4163C19.8015 10.1657 19.5458 10.0139 19.2947 10.077C19.0435 10.1403 18.8927 10.3946 18.9572 10.6454L19.5106 12.7911Z" fill="#DDDEE0"/>
<path d="M18.1294 7.4277L18.4061 8.50098C18.471 8.75167 18.7266 8.90361 18.9777 8.8403C19.2286 8.7768 19.3796 8.52247 19.3152 8.27182L19.0384 7.19854L21.9711 6.45928C22.9761 6.20598 24.001 6.8144 24.2598 7.81797L25.5355 12.7645C25.7944 13.7681 25.1892 14.7874 24.1842 15.0408L21.2516 15.7801L20.975 14.7077C20.9102 14.4572 20.6542 14.3044 20.4032 14.3675C20.152 14.4308 20.0014 14.6861 20.0659 14.9369L20.3425 16.0092L19.9277 16.1138L17.7146 7.53225L18.1294 7.4277ZM19.5126 12.7913C19.5773 13.0422 19.8329 13.1939 20.0842 13.1306C20.3352 13.0671 20.4863 12.8129 20.4217 12.5621L19.8683 10.4165C19.8034 10.1661 19.5476 10.0142 19.2967 10.0772C19.0457 10.1405 18.8949 10.3949 18.9593 10.6456L19.5126 12.7913Z" fill="#0ABF00"/>
<path d="M7.0957 12.9512L16.6434 10.5444" stroke="#95969B" stroke-width="0.938363" stroke-linecap="round"/>
<path d="M20.7617 8.59229L22.4977 8.15469" stroke="#0E0E0E" stroke-width="0.938363" stroke-linecap="square"/>
<path d="M21.2031 10.3086L22.9391 9.871" stroke="#0E0E0E" stroke-width="0.938363" stroke-linecap="square"/>
<path d="M21.6465 12.0254L23.3824 11.5878" stroke="#0E0E0E" stroke-width="0.938363" stroke-linecap="square"/>
<path d="M22.0898 13.7407L23.8258 13.3031" stroke="#0E0E0E" stroke-width="0.938363" stroke-linecap="square"/>
<path d="M7.53711 14.6675L12.7449 13.3547" stroke="#AAACB2" stroke-width="0.469182" stroke-linecap="round"/>
<path d="M7.75977 15.5254L10.3637 14.869" stroke="#AAACB2" stroke-width="0.469182" stroke-linecap="round"/>
<path d="M5.16159 12.6305C4.90306 11.627 5.50824 10.6085 6.51313 10.3552L18.1273 7.4275L18.4041 8.50078C18.4692 8.75125 18.7247 8.90337 18.9757 8.8401C19.2265 8.77667 19.3774 8.52217 19.3132 8.27162L19.0364 7.19834L21.9691 6.45908C22.9739 6.20599 23.9976 6.81381 24.2566 7.81707L25.5326 12.7646C25.7912 13.768 25.1867 14.7862 24.182 15.0396L21.2493 15.7789L20.973 14.7075C20.9083 14.4567 20.6523 14.3042 20.4012 14.3673C20.1499 14.4306 19.9992 14.6858 20.0639 14.9367L20.3402 16.0081L8.72602 18.9358C7.72108 19.1891 6.69649 18.5815 6.43753 17.578L5.16159 12.6305ZM21.2493 15.7789L21.2495 15.7799L20.3405 16.009L20.3402 16.0081L21.2493 15.7789ZM19.5106 12.7911C19.5755 13.0417 19.831 13.1937 20.0822 13.1304C20.3331 13.0669 20.4841 12.8126 20.4196 12.5619L19.8663 10.4163C19.8015 10.1657 19.5458 10.0139 19.2947 10.077C19.0435 10.1403 18.8927 10.3946 18.9572 10.6454L19.5106 12.7911Z" fill="#0E0E0E" fill-opacity="0.1"/>
<path d="M18.1294 7.4277L18.4061 8.50098C18.471 8.75167 18.7266 8.90361 18.9777 8.8403C19.2286 8.7768 19.3796 8.52247 19.3152 8.27182L19.0384 7.19854L21.9711 6.45928C22.9761 6.20598 24.001 6.8144 24.2598 7.81797L25.5355 12.7645C25.7944 13.7681 25.1892 14.7874 24.1842 15.0408L21.2516 15.7801L20.975 14.7077C20.9102 14.4572 20.6542 14.3044 20.4032 14.3675C20.152 14.4308 20.0014 14.6861 20.0659 14.9369L20.3425 16.0092L19.9277 16.1138L17.7146 7.53225L18.1294 7.4277ZM19.5126 12.7913C19.5773 13.0422 19.8329 13.1939 20.0842 13.1306C20.3352 13.0671 20.4863 12.8129 20.4217 12.5621L19.8683 10.4165C19.8034 10.1661 19.5476 10.0142 19.2967 10.0772C19.0457 10.1405 18.8949 10.3949 18.9593 10.6456L19.5126 12.7913Z" fill="#0E0E0E" fill-opacity="0.1"/>
<path d="M3 12.5625C3 11.4579 3.89543 10.5625 5 10.5625L17.7734 10.5625L17.7734 11.7422C17.7734 12.0183 17.9973 12.2422 18.2734 12.2422C18.5496 12.2422 18.7734 12.0183 18.7734 11.7422L18.7734 10.5625L22.001 10.5625C23.1054 10.5627 24.001 11.458 24.001 12.5625L24.001 18C24.001 19.1045 23.1054 19.9998 22.001 20L18.7734 20L18.7734 18.8203C18.7734 18.5442 18.5496 18.3203 18.2734 18.3203C17.9973 18.3203 17.7734 18.5442 17.7734 18.8203L17.7734 20L5 20C3.89543 20 3 19.1046 3 18L3 12.5625ZM17.7734 16.4609C17.7734 16.7371 17.9973 16.9609 18.2734 16.9609C18.5496 16.9609 18.7734 16.7371 18.7734 16.4609L18.7734 14.1016C18.7734 13.8254 18.5496 13.6016 18.2734 13.6016C17.9973 13.6016 17.7734 13.8254 17.7734 14.1016L17.7734 16.4609Z" fill="#DDDEE0"/>
<path d="M17.7744 10.5625L17.7744 11.7422C17.7744 12.0183 17.9983 12.2422 18.2744 12.2422C18.5506 12.2422 18.7744 12.0183 18.7744 11.7422L18.7744 10.5625L22.002 10.5625C23.1065 10.5625 24.002 11.458 24.002 12.5625L24.002 18C24.002 19.1045 23.1065 20 22.002 20L18.7744 20L18.7744 18.8203C18.7744 18.5442 18.5506 18.3203 18.2744 18.3203C17.9983 18.3203 17.7744 18.5442 17.7744 18.8203L17.7744 20L17.3203 20L17.3203 10.5625L17.7744 10.5625ZM17.7744 16.4609C17.7744 16.7371 17.9983 16.9609 18.2744 16.9609C18.5506 16.9609 18.7744 16.7371 18.7744 16.4609L18.7744 14.1016C18.7744 13.8254 18.5506 13.6016 18.2744 13.6016C17.9983 13.6016 17.7744 13.8254 17.7744 14.1016L17.7744 16.4609Z" fill="#0ABF00"/>
<path d="M4.91016 13.3936L15.4105 13.3936" stroke="#95969B" stroke-linecap="round"/>
<path d="M20.1836 12.4502H22.0927" stroke="#0E0E0E" stroke-linecap="square"/>
<path d="M20.1836 14.3374H22.0927" stroke="#0E0E0E" stroke-linecap="square"/>
<path d="M20.1836 16.2251H22.0927" stroke="#0E0E0E" stroke-linecap="square"/>
<path d="M20.1836 18.1123H22.0927" stroke="#0E0E0E" stroke-linecap="square"/>
<path d="M4.91016 15.2812H10.6376" stroke="#AAACB2" stroke-width="0.5" stroke-linecap="round"/>
<path d="M4.91016 16.2251H7.77389" stroke="#AAACB2" stroke-width="0.5" stroke-linecap="round"/>
</svg>
